<?xml version="1.0" standalone="no"?>
<!DOCTYPE svg PUBLIC "-//W3C//DTD SVG 20010904//EN"
 "http://www.w3.org/TR/2001/REC-SVG-20010904/DTD/svg10.dtd">
<svg version="1.0" xmlns="http://www.w3.org/2000/svg"
 width="700.000000pt" height="700.000000pt" viewBox="0 0 700.000000 700.000000"
 preserveAspectRatio="xMidYMid meet">
<metadata>
Created by potrace 1.14, written by Peter Selinger 2001-2017
</metadata>
<g transform="translate(0.000000,700.000000) scale(0.100000,-0.100000)"
fill="#000000" stroke="none">
<path d="M3278 6995 c-1 -1 -42 -6 -89 -9 -47 -4 -94 -8 -106 -10 -11 -2 -44
-7 -74 -11 -65 -8 -88 -11 -159 -25 -30 -6 -66 -14 -80 -16 -14 -3 -61 -14
-105 -25 -44 -12 -87 -22 -95 -24 -38 -9 -215 -66 -305 -100 -161 -60 -367
-158 -530 -253 -95 -56 -224 -181 -274 -265 -61 -104 -103 -254 -104 -377 -2
-150 57 -329 146 -444 53 -70 53 -72 9 -34 -103 87 -266 146 -417 153 -234 9
-480 -107 -608 -287 -145 -204 -339 -688 -403 -1003 -19 -94 -34 -175 -39
-202 -3 -18 -7 -47 -10 -65 -3 -17 -8 -52 -10 -77 -3 -25 -8 -82 -12 -126 -15
-153 -8 -601 11 -702 2 -10 7 -43 10 -74 4 -31 9 -67 11 -80 3 -13 7 -39 10
-58 2 -18 7 -41 9 -50 3 -9 7 -27 10 -41 49 -287 206 -699 384 -1015 85 -152
262 -407 353 -510 14 -16 50 -57 79 -90 256 -294 623 -581 984 -771 418 -219
870 -352 1331 -391 209 -18 603 -7 782 21 21 3 55 9 77 12 21 3 48 7 60 10 11
2 35 6 51 9 249 47 553 146 807 263 202 94 328 211 406 380 30 66 26 54 51
158 43 188 -1 408 -113 564 l-39 55 34 -31 c231 -208 568 -250 844 -106 155
81 256 198 405 472 120 221 199 410 289 695 10 31 50 184 57 220 23 113 54
294 59 350 4 39 10 102 15 140 8 73 5 548 -4 600 -2 17 -8 55 -11 85 -10 84
-12 98 -30 200 -120 691 -467 1354 -975 1860 -389 388 -845 673 -1351 844
-178 60 -369 110 -496 130 -33 5 -116 19 -123 21 -3 1 -41 5 -85 10 -44 4 -89
10 -100 12 -25 4 -532 13 -537 8z m440 -1486 c26 -4 70 -10 97 -13 116 -15
310 -70 440 -123 256 -106 480 -257 680 -458 380 -383 583 -876 583 -1415 0
-91 -4 -188 -8 -216 -5 -27 -11 -73 -15 -103 -8 -61 -61 -278 -78 -321 -4 -8
-16 -42 -28 -75 -36 -100 -102 -233 -178 -360 -99 -166 -133 -280 -131 -440 2
-143 48 -289 127 -399 l36 -51 -42 38 c-139 125 -316 189 -505 183 -144 -5
-169 -11 -352 -92 -111 -49 -273 -107 -327 -118 -12 -3 -53 -12 -92 -21 -137
-33 -273 -44 -470 -40 -104 2 -203 6 -220 10 -16 3 -77 15 -135 26 -383 76
-739 267 -1020 549 -123 123 -190 205 -282 345 -145 223 -255 509 -293 766 -2
19 -9 61 -14 94 -9 61 -7 430 3 495 3 19 11 58 16 86 6 28 13 64 16 80 18 107
98 328 175 484 80 163 100 232 105 365 5 178 -45 336 -152 478 -35 45 -40 55
-18 36 106 -94 301 -163 456 -162 155 2 264 36 444 138 40 23 108 57 151 75
43 18 92 38 108 45 24 11 100 35 160 51 91 26 222 51 330 64 77 9 372 9 433
-1z"/>
</g>
</svg>
