<svg width="405" height="1075" viewBox="0 0 405 1075" fill="none" xmlns="http://www.w3.org/2000/svg">
<path d="M56.1192 211H15.7992V0.472095H56.1192V211Z" fill="#F8ECD3"/>
<path d="M205.546 211H122.314V0.184082H205.546C235.69 0.184082 260.458 9.01608 279.85 26.6801C290.218 36.0881 297.994 47.5121 303.178 60.9521C308.554 74.2001 311.242 89.0801 311.242 105.592C311.242 122.296 308.554 137.368 303.178 150.808C297.994 164.056 290.218 175.384 279.85 184.792C270.442 193.432 259.402 199.96 246.73 204.376C234.25 208.792 220.522 211 205.546 211ZM162.634 175.288H205.546C213.034 175.288 220.618 174.424 228.298 172.696C235.978 170.968 242.89 167.608 249.034 162.616C255.37 157.432 260.554 150.328 264.586 141.304C268.618 132.28 270.634 120.472 270.634 105.88C270.634 91.2881 268.618 79.4801 264.586 70.4561C260.554 61.2401 255.37 54.1361 249.034 49.1441C242.698 44.1521 235.69 40.7921 228.01 39.0641C220.33 37.3361 212.842 36.4721 205.546 36.4721H162.634V175.288Z" fill="#F8ECD3"/>
<path d="M50.0712 323.896V376.6H152.023V413.176H50.0712V462.712H164.983V499H10.0392V288.184H164.983V323.896H50.0712Z" fill="#F8ECD3"/>
<path d="M399.881 499L261.065 373.72V499H221.033V288.472H225.353L363.881 415.768V288.472H404.201V499H399.881Z" fill="#F8ECD3"/>
<path d="M161.527 611.896H101.335V787H61.0152V611.896H0.535156V576.184H161.527V611.896Z" fill="#F8ECD3"/>
<path d="M249.675 787H209.355V576.472H249.675V787Z" fill="#F8ECD3"/>
<path d="M161.527 899.896H101.335V1075H61.0152V899.896H0.535156V864.184H161.527V899.896Z" fill="#F8ECD3"/>
<path d="M383.307 864.472C377.931 873.304 371.691 883.384 364.587 894.712C357.675 906.04 350.571 917.656 343.275 929.56C335.979 941.272 328.779 952.888 321.675 964.408C314.571 975.736 308.331 986.008 302.955 995.224V1075H262.635V995.224C250.155 973.336 236.907 951.544 222.891 929.848C208.875 908.152 195.531 886.36 182.859 864.472H229.803C238.443 878.872 247.275 893.752 256.299 909.112C265.323 924.472 274.155 939.352 282.795 953.752C287.019 947.032 291.435 939.832 296.043 932.152C300.651 924.472 305.259 916.792 309.867 909.112C314.475 901.24 318.987 893.56 323.403 886.072C328.011 878.392 332.331 871.192 336.363 864.472H383.307Z" fill="#F8ECD3"/>
</svg>
