<svg width="215" height="43" viewBox="0 0 215 43" fill="none" xmlns="http://www.w3.org/2000/svg">
<path fill-rule="evenodd" clip-rule="evenodd" d="M32.0465 7.71022C34.1757 7.72635 35.9661 5.9359 35.9016 3.85511C35.9016 1.72593 34.1918 0 32.0787 0C29.9657 0.0161302 28.2075 1.64528 28.2075 3.85511C28.2075 6.11333 29.9979 7.69409 32.0465 7.71022ZM38.35 16.8538C38.4197 16.9096 38.4894 16.9653 38.6274 16.9528C38.7725 16.9187 38.9266 16.8755 39.0874 16.8304L39.0875 16.8304L39.0876 16.8304C39.2306 16.7903 39.3788 16.7488 39.5307 16.7108C40.6598 16.4044 41.793 16.1019 42.9262 15.7995C44.0593 15.497 45.1924 15.1946 46.3215 14.8881C47.5232 14.5655 48.7289 14.247 49.9346 13.9284C51.1403 13.6098 52.3461 13.2913 53.5478 12.9686C53.822 12.9041 53.8543 12.8396 53.7414 12.5815C52.7252 10.2588 51.3218 8.19412 49.5475 6.37141C48.5474 5.32295 47.4345 4.41966 46.2247 3.61315C45.2085 2.93568 44.1278 2.33887 42.9987 1.85496C42.8051 1.77431 42.6761 1.79044 42.547 1.93561C42.418 2.08078 42.2728 2.20982 42.1276 2.33887C41.5553 2.84675 40.9789 3.3506 40.4025 3.85445L40.4018 3.85507L40.4017 3.85511C39.8251 4.35918 39.2484 4.86324 38.6758 5.37134C38.2487 5.75008 37.8216 6.12479 37.3945 6.4995L37.3935 6.50043C36.966 6.87546 36.5385 7.2505 36.1111 7.62956C35.5304 8.14572 34.9497 8.65784 34.3691 9.16997L34.3676 9.17125L34.3674 9.17144C33.7873 9.68309 33.2071 10.1947 32.627 10.7104L32.581 10.7496C32.4491 10.8624 32.3802 10.9213 32.3124 10.9201C32.2385 10.9188 32.1659 10.8462 32.014 10.6943C29.5139 8.19412 27.0137 5.69394 24.5135 3.17763C24.3361 2.98407 24.207 2.98407 23.9973 3.11311L23.9973 3.11313C23.3037 3.56477 22.6101 4.01641 21.9488 4.53257C20.9649 5.30682 20.0454 6.14559 19.2228 7.08114C19.126 7.19405 19.0615 7.30696 19.2067 7.436C19.3314 7.55116 19.4448 7.67203 19.5603 7.79521L19.5604 7.7953C19.639 7.87913 19.7186 7.96404 19.8035 8.04895L29.6752 17.9206C29.9494 18.1948 29.9655 18.1948 30.1752 17.8722C31.4172 16.0172 33.627 15.0817 35.9014 15.5817C36.8047 15.7753 37.5789 16.2108 38.2887 16.8076C38.3102 16.822 38.3301 16.8379 38.35 16.8538ZM33.2288 41.5961C33.7099 41.6382 34.1745 41.6788 34.5937 41.6481C36.11 41.6642 37.481 41.5029 38.836 41.2448C40.6587 40.8739 42.4169 40.2609 44.0944 39.406C45.0783 38.906 46.0139 38.3092 46.9172 37.664C47.0946 37.5349 47.2075 37.3897 47.1591 37.1317C47.014 36.43 46.8728 35.7283 46.7317 35.0267L46.7316 35.0263L46.7315 35.0259C46.5904 34.3245 46.4493 33.6231 46.3042 32.9217C46.1512 32.1483 45.9941 31.3749 45.837 30.6015L45.8369 30.6013L45.8364 30.5989C45.6792 29.8246 45.5219 29.0504 45.3687 28.2762L45.3685 28.2751L45.3684 28.275C45.0943 26.8721 44.8202 25.4691 44.5299 24.0662C44.4654 23.8081 44.5299 23.7436 44.7719 23.6791C45.3282 23.534 45.8804 23.3848 46.4327 23.2357L46.4333 23.2355C46.9858 23.0863 47.5382 22.9371 48.0947 22.7919C48.8059 22.5999 49.5171 22.411 50.227 22.2225L50.2274 22.2224L50.2292 22.2219L50.2295 22.2218L50.2298 22.2217C51.1289 21.9829 52.0258 21.7448 52.9176 21.5015C53.2967 21.4047 53.6757 21.2999 54.0548 21.1951C54.4338 21.0902 54.8129 20.9854 55.1919 20.8886C55.3855 20.8402 55.45 20.7273 55.45 20.5337C55.45 19.9729 55.392 19.4122 55.3351 18.8612C55.3249 18.7624 55.3147 18.6639 55.3049 18.5658C55.1597 17.2109 54.8855 15.8721 54.4661 14.5656C54.3209 14.1139 54.3048 14.0978 53.8531 14.2268C52.5466 14.5817 51.2239 14.9365 49.9013 15.2914C48.1919 15.7591 46.4824 16.2106 44.773 16.6622L44.7724 16.6623L44.7721 16.6624L44.7719 16.6625L39.7393 18.0174C39.3683 18.1142 39.3683 18.1303 39.5296 18.4529C40.1425 19.6788 40.2715 20.9692 39.9167 22.2758C39.4166 24.1307 38.223 25.3728 36.4164 26.018C36.239 26.0986 36.1422 26.1954 36.0938 26.389C35.8196 27.4536 35.5454 28.502 35.2551 29.5505L33.8517 34.7283C33.4485 36.1961 33.0614 37.6478 32.6742 39.1157C32.4807 39.7931 32.3032 40.4706 32.1258 41.1481C32.0613 41.4223 32.1258 41.5191 32.3839 41.5352C32.6674 41.547 32.9508 41.5718 33.2288 41.5961ZM46.9015 27.1149C46.8854 29.2924 48.6275 30.97 50.7405 30.9538C52.8697 30.97 54.6279 29.2763 54.6118 27.0826C54.5956 24.8889 52.902 23.2597 50.7566 23.2597C48.5791 23.2597 46.9015 24.905 46.9015 27.1149ZM4.73694 1.64531H8.78561C9.17274 1.64531 9.18887 1.67757 9.22113 2.08082C9.25339 2.40342 9.28968 2.73006 9.32597 3.05669C9.36226 3.38333 9.39856 3.70997 9.43082 4.03257L9.45658 4.24865C9.52848 4.851 9.599 5.44186 9.65664 6.03271C9.73729 6.72631 9.81794 7.4199 9.88246 8.12963C9.94213 8.64111 9.9973 9.15259 10.0527 9.66644L10.0527 9.66657C10.1022 10.125 10.1518 10.5853 10.2051 11.0492C10.2373 11.3556 10.2736 11.662 10.3099 11.9684L10.3099 11.9686C10.3462 12.2751 10.3825 12.5816 10.4148 12.888L10.4148 12.8882C10.4954 13.5656 10.5761 14.243 10.6406 14.9204C10.7051 15.5656 10.7696 16.2108 10.8503 16.8399C10.8905 17.1701 10.9308 17.5043 10.9711 17.8385L10.9713 17.84C11.0116 18.1747 11.0519 18.5094 11.0922 18.8401C11.1485 19.355 11.2049 19.866 11.2612 20.3769L11.2616 20.3802L11.2616 20.3809C11.3181 20.8929 11.3745 21.4049 11.431 21.9209L11.431 21.9213C11.56 23.0987 11.6891 24.2761 11.8181 25.4373C11.931 26.389 12.0439 27.3407 12.1407 28.2923C12.2133 28.9536 12.2899 29.619 12.3665 30.2843L12.3665 30.2844C12.4431 30.9498 12.5197 31.6152 12.5923 32.2765C12.7536 33.7766 12.9149 35.2606 13.0924 36.7607C13.1488 37.2526 13.2053 37.7486 13.2617 38.2447C13.3182 38.7407 13.3746 39.2367 13.4311 39.7286C13.4714 40.1077 13.5117 40.4827 13.5521 40.8577L13.5522 40.8591C13.5925 41.2337 13.6328 41.6083 13.6731 41.9868C13.6892 42.132 13.6247 42.2127 13.4795 42.2127H13.2859H6.54352C6.14273 42.2127 6.14028 42.1967 6.07692 41.7848L6.07574 41.7772C5.91445 40.5997 5.73703 39.4384 5.55961 38.2771L5.55958 38.2769C5.36602 36.8897 5.17245 35.5187 4.96276 34.1315C4.82057 33.1219 4.66583 32.1248 4.50962 31.1182L4.50961 31.1181L4.4466 30.7119C4.2853 29.5666 4.12399 28.4214 3.96269 27.2923C3.89817 26.8406 3.82962 26.389 3.76106 25.9373C3.69251 25.4857 3.62396 25.034 3.55944 24.5824L3.48766 24.0735L3.48765 24.0734C3.31779 22.8685 3.1464 21.6527 2.96262 20.4369C2.88497 19.8856 2.79984 19.3343 2.71444 18.7812L2.71443 18.7811C2.62243 18.1853 2.5301 17.5874 2.44646 16.9851C2.36581 16.4205 2.28919 15.8519 2.21257 15.2834L2.21256 15.2833C2.13595 14.7147 2.05933 14.1462 1.97868 13.5816C1.83648 12.572 1.68175 11.575 1.52553 10.5683L1.52553 10.5683L1.46252 10.162C1.398 9.71845 1.33751 9.27487 1.27702 8.83129C1.21653 8.38771 1.15604 7.94413 1.09152 7.50056C1.01457 6.92337 0.926134 6.33472 0.836492 5.73801C0.775824 5.33417 0.714602 4.92663 0.656008 4.51647C0.591488 4.09709 0.531 3.67771 0.470512 3.25833L0.470511 3.25832C0.410023 2.83894 0.349535 2.41955 0.285014 2.00017C0.252754 1.74209 0.333405 1.64531 0.607618 1.66144C1.29315 1.66144 1.98271 1.6574 2.67228 1.65337L2.67234 1.65337C3.36188 1.64934 4.05143 1.64531 4.73694 1.64531ZM29.3995 19.6467L29.3995 19.6466C29.4147 19.4792 29.2863 19.3836 29.1634 19.292L29.1414 19.2756C25.5766 15.6947 22.0119 12.1299 18.4471 8.56518C18.1729 8.29097 18.1568 8.29097 17.9309 8.61357C17.0599 9.85559 16.2857 11.1621 15.6727 12.5493C14.5275 15.1785 13.9629 17.9207 13.9307 20.7757C13.9307 21.4148 13.9712 22.0438 14.0121 22.6788L14.0121 22.6791L14.0121 22.6795C14.0228 22.8455 14.0335 23.012 14.0436 23.1791C14.0597 23.4049 14.1726 23.5017 14.3662 23.5662L14.3665 23.5663C15.3987 23.905 16.431 24.2437 17.4632 24.5986L17.4632 24.5986L17.4635 24.5987L17.4638 24.5988C20.6412 25.6794 23.8187 26.7601 27.0122 27.8246C27.2219 27.8891 27.2864 27.9698 27.2219 28.1956C27.0284 28.8892 26.8509 29.5667 26.6735 30.2603C26.3993 31.3408 26.109 32.4213 25.8187 33.5019L25.8187 33.5022L25.8186 33.5023L25.8186 33.5024L25.8186 33.5026C25.3669 35.1962 24.9153 36.8898 24.4475 38.5834C24.383 38.8092 24.4314 38.9383 24.6411 39.0512C26.4961 40.0835 28.4478 40.7933 30.4963 41.2288C30.6738 41.2772 30.7544 41.2288 30.8028 41.0352C31.0125 40.2127 31.2383 39.3901 31.4641 38.5676L31.4642 38.5673C31.6806 37.7375 31.9021 36.9127 32.1231 36.0901C32.2972 35.4417 32.471 34.7947 32.6417 34.1476C32.7949 33.583 32.9441 33.0225 33.0933 32.4619L33.0939 32.4597C33.2429 31.9 33.3919 31.3402 33.5449 30.7764L33.545 30.7763L33.545 30.7762C33.916 29.4213 34.287 28.0665 34.6418 26.7116C34.7386 26.3568 34.6902 26.3084 34.3192 26.2922C33.3998 26.2438 32.5449 25.9858 31.7868 25.4696C29.9157 24.1953 29.0608 22.421 29.335 20.1466C29.3672 19.9692 29.3834 19.8079 29.3995 19.6467ZM21.2702 27.8407C19.1572 27.8407 17.4313 29.5667 17.4313 31.6797C17.4151 33.7766 19.1088 35.5348 21.2702 35.551C23.4478 35.551 25.1254 33.8412 25.1254 31.6797C25.1254 29.5021 23.3672 27.8407 21.2702 27.8407Z" fill="#7C7C7C"/>
<g clip-path="url(#clip0_4825_819)">
<path d="M75.5127 13.6317C76.5727 13.6317 77.5364 13.6317 78.5482 13.6317C78.5482 13.8769 78.5964 14.073 78.5964 14.2691C78.5964 16.1322 78.5964 17.9463 78.5964 19.8093C78.5964 20.2996 78.7409 20.4467 79.2227 20.4467C79.9937 20.3977 80.7164 20.4467 81.4873 20.4467C81.8728 20.4467 82.0173 20.3487 82.0173 19.9564C81.9692 19.4171 82.0173 18.8778 82.0173 18.2895C81.8728 15.6909 84.2819 13.6808 86.4019 13.6317C90.0638 13.5827 93.7739 13.5827 97.4839 13.6317C99.5076 13.6808 101.917 15.5929 101.869 18.2404C101.82 20.6428 101.772 23.0452 101.869 25.3986C101.965 28.4384 99.7003 30.2034 97.3876 30.2524C93.7257 30.3015 90.112 30.3015 86.4501 30.2524C84.1855 30.2034 82.451 28.7816 82.0655 26.6733C81.921 25.8889 81.9692 25.0554 81.9692 24.2709C81.9692 23.4375 81.9692 23.4375 81.15 23.4375C80.4755 23.4375 79.8491 23.4375 79.1746 23.4375C78.7409 23.4375 78.5964 23.5845 78.5964 24.0258C78.5964 25.8889 78.5964 27.752 78.5964 29.6151C78.5964 30.1053 78.4518 30.3015 77.97 30.2524C77.3436 30.2034 76.7173 30.2034 76.1391 30.2524C75.6572 30.3015 75.5127 30.1544 75.5127 29.6151C75.5609 27.4578 75.5127 25.3496 75.5127 23.1923C75.5127 20.2506 75.5127 17.2599 75.5127 14.3181C75.5127 14.1711 75.5127 13.9259 75.5127 13.6317ZM91.9429 16.5735C90.2565 16.5735 88.5702 16.5735 86.932 16.5735C85.7274 16.5735 85.0528 17.2599 85.0528 18.4856C85.0528 20.8389 85.0528 23.1433 85.0528 25.4967C85.0528 26.8204 85.5347 27.2617 86.7874 27.2617C90.2084 27.2617 93.6293 27.2617 97.0503 27.2617C98.303 27.2617 98.7367 26.7714 98.7848 25.4967C98.7848 23.2413 98.7848 20.937 98.7848 18.6817C98.7848 17.1618 98.2067 16.5735 96.6648 16.5735C95.0748 16.5735 93.533 16.5735 91.9429 16.5735Z" fill="#7C7C7C"/>
<path d="M153.424 13.5828C153.954 13.5828 154.388 13.5828 154.869 13.5828C158.194 13.5828 161.519 13.5828 164.843 13.5828C166.963 13.5828 168.891 15.1027 169.421 17.1619C169.517 17.5051 169.517 17.8483 169.517 18.1915C169.517 20.5448 169.421 22.9472 169.565 25.3006C169.71 28.3894 167.397 30.2525 164.699 30.2525C162.241 30.2525 159.784 30.2525 157.375 30.2525C156.267 30.2525 155.11 30.2525 154.05 30.1054C151.786 29.7622 150.34 27.9481 150.34 25.6438C150.292 22.4079 152.219 20.4468 155.399 20.4468C158.869 20.4468 162.386 20.4468 165.855 20.4468C166.385 20.4468 166.578 20.2997 166.53 19.7604C166.481 19.2701 166.53 18.8288 166.53 18.3385C166.53 17.358 165.951 16.6716 164.988 16.5735C164.747 16.5245 164.506 16.5245 164.313 16.5245C160.94 16.5245 157.519 16.5245 154.147 16.5245C153.665 16.5245 153.52 16.3774 153.52 15.8871C153.424 15.2007 153.424 14.4653 153.424 13.5828ZM160.555 23.4375C158.772 23.4375 156.989 23.4375 155.255 23.4375C153.954 23.4375 153.328 24.1239 153.376 25.4967C153.376 26.8205 153.809 27.2617 155.207 27.2617C156.941 27.2617 158.628 27.2617 160.362 27.2617C161.808 27.2617 163.301 27.2617 164.747 27.2617C166 27.2617 166.481 26.7715 166.481 25.4967C166.481 25.0064 166.433 24.5652 166.481 24.0749C166.53 23.5846 166.337 23.3885 165.855 23.3885C164.072 23.4375 162.29 23.4375 160.555 23.4375Z" fill="#7C7C7C"/>
<path d="M192.018 27.2617C192.018 28.2423 192.018 29.1248 192.018 30.0073C192.018 30.1054 191.873 30.2034 191.777 30.2524C191.681 30.3015 191.488 30.2524 191.392 30.2524C186.862 30.2524 182.381 30.2524 177.852 30.2524C176.648 30.2524 175.54 29.9583 174.528 29.2228C173.419 28.3403 172.841 27.2617 172.841 25.8399C172.841 23.2904 172.841 20.7899 172.841 18.2404C172.841 16.0832 174.239 14.2691 176.31 13.7298C176.696 13.6317 177.13 13.5827 177.563 13.5337C182.189 13.5337 186.814 13.5337 191.44 13.5337C191.584 13.5337 191.777 13.5337 192.018 13.5827C192.018 14.4652 192.018 15.3477 192.018 16.1812C192.018 16.2793 191.825 16.4264 191.729 16.4754C191.584 16.5244 191.44 16.4754 191.247 16.4754C186.814 16.4754 182.43 16.4754 177.997 16.4754C177.515 16.4754 176.937 16.6225 176.551 16.9167C176.214 17.1618 175.973 17.7011 175.925 18.0933C175.877 20.5938 175.877 23.0943 175.925 25.6438C175.925 26.6243 176.455 27.1636 177.467 27.1636C178.864 27.1636 180.261 27.1636 181.707 27.1636C184.935 27.1636 188.163 27.1636 191.343 27.1636C191.536 27.2617 191.777 27.2617 192.018 27.2617Z" fill="#7C7C7C"/>
<path d="M122.25 30.3015C122.25 29.9583 122.25 29.7131 122.25 29.517C122.25 25.8399 122.25 22.1627 122.25 18.4365C122.25 17.1128 121.864 16.6225 120.563 16.6225C117.142 16.6225 113.721 16.6225 110.252 16.6225C108.903 16.6225 108.518 17.1128 108.518 18.4856C108.518 22.1627 108.518 25.8399 108.518 29.566C108.518 30.3505 108.518 30.3505 107.747 30.3505C106.976 30.3505 106.253 30.3505 105.434 30.3505C105.434 30.0563 105.434 29.8602 105.434 29.6641C105.434 25.8889 105.482 22.1137 105.434 18.3875C105.386 15.4948 107.747 13.7298 109.915 13.7298C113.577 13.6808 117.19 13.7298 120.852 13.7298C122.78 13.7298 125.381 15.2497 125.333 18.3385C125.285 22.1627 125.333 25.9869 125.333 29.8112C125.333 30.2524 125.237 30.4485 124.755 30.3995C123.936 30.2524 123.117 30.3015 122.25 30.3015Z" fill="#7C7C7C"/>
<path d="M147.786 30.3014C146.726 30.3014 145.763 30.3014 144.799 30.3014C144.654 30.3014 144.462 30.0072 144.413 29.8111C143.932 27.9971 143.498 26.183 143.016 24.369C142.534 22.4078 142.053 20.4467 141.523 18.5346C141.137 17.1618 140.463 16.6715 139.113 16.6715C138.342 16.6715 137.572 16.6715 136.801 16.6715C135.162 16.6715 134.536 17.1618 134.151 18.7797C133.187 22.4568 132.271 26.183 131.356 29.8602C131.26 30.2524 131.115 30.3504 130.73 30.3504C129.814 30.3504 128.947 30.3504 127.935 30.3504C128.224 29.2718 128.465 28.2422 128.706 27.2616C129.525 24.0748 130.296 20.8389 131.163 17.652C131.597 16.0341 132.368 14.6123 134.054 13.9749C134.584 13.7788 135.114 13.6807 135.692 13.6807C137.042 13.6317 138.391 13.6807 139.74 13.6807C142.053 13.6807 143.594 14.7103 144.365 16.9166C144.895 18.4855 145.281 20.1525 145.714 21.7704C146.389 24.418 147.064 27.1146 147.738 29.8111C147.738 29.8602 147.738 30.0072 147.786 30.3014Z" fill="#7C7C7C"/>
<path d="M195.246 16.5736C195.246 15.544 195.246 14.6124 195.246 13.6318C201.558 13.6318 207.87 13.6318 214.278 13.6318C214.278 14.5144 214.278 15.3969 214.23 16.2794C214.23 16.3774 213.893 16.5736 213.7 16.5736C211.484 16.5736 209.219 16.5736 207.003 16.5736C206.232 16.5736 206.232 16.5736 206.232 17.358C206.232 21.3784 206.232 25.4477 206.232 29.4681C206.232 30.2525 206.232 30.2525 205.413 30.2525C204.69 30.2525 203.967 30.2525 203.148 30.2525C203.148 29.9584 203.148 29.7132 203.148 29.5171C203.148 25.4477 203.148 21.3784 203.148 17.26C203.148 16.7206 203.003 16.5245 202.473 16.5245C200.305 16.5736 198.137 16.5245 195.921 16.5245C195.728 16.5736 195.535 16.5736 195.246 16.5736Z" fill="#7C7C7C"/>
</g>
<defs>
<clipPath id="clip0_4825_819">
<rect width="138.766" height="16.7188" fill="white" transform="translate(75.5127 13.5828)"/>
</clipPath>
</defs>
</svg>
