<svg width="465" height="94" viewBox="0 0 465 94" fill="none" xmlns="http://www.w3.org/2000/svg">
<path fill-rule="evenodd" clip-rule="evenodd" d="M283.58 94H6.33182C2.0015 94 -0.704942 90.5306 0.161121 86.1938L16.7246 7.80623C17.5906 3.46943 21.8127 0 26.143 0H304.041L283.58 94ZM100.3 24.8282C99.8667 26.9966 97.7015 28.7312 95.6446 28.7312H78.4316L68.9049 73.5087C68.3636 75.6771 66.3067 77.4118 64.2498 77.4118H41.6239C39.4587 77.4118 38.1596 75.6771 38.5927 73.5087L48.1194 28.7312H30.2568C28.1999 28.7312 26.9008 26.9966 27.3339 24.8282L28.4164 19.7324C28.8495 17.6724 30.9064 15.9377 32.9633 15.9377H98.3511C100.516 15.9377 101.815 17.6724 101.382 19.7324L100.3 24.8282ZM180.519 73.4002C179.436 75.5686 177.163 77.3034 174.998 77.3034H156.053C154.753 77.3034 153.346 77.1949 153.13 74.9181L150.315 51.7163L137.649 74.9181C136.458 77.1949 135.05 77.3034 133.751 77.3034H114.698C112.533 77.3034 111.125 75.5686 110.909 73.4002L104.522 19.624C104.305 17.564 106.254 15.8293 108.311 15.8293H134.076C136.241 15.8293 137.865 17.564 137.865 19.624L139.273 49.2226L154.862 22.8766H157.893L162.331 49.2226L176.297 19.624C177.271 17.564 179.436 15.8293 181.601 15.8293H207.475C209.532 15.8293 210.615 17.564 209.64 19.624L180.519 73.4002ZM276.977 67.1119C275.894 72.7497 268.641 77.3034 260.954 77.3034H216.677C208.991 77.3034 203.794 72.7497 204.877 67.1119L213.537 26.1292C214.728 20.4913 221.873 15.9377 229.56 15.9377H273.945C281.632 15.9377 286.828 20.4913 285.637 26.1292L276.977 67.1119ZM249.912 24.8282C246.448 24.8282 242.875 28.0807 242.009 32.0923L235.839 61.1488C234.973 65.1603 237.029 68.3045 240.602 68.3045C244.174 68.3045 247.639 65.1603 248.613 61.1488L254.784 32.0923C255.65 28.0807 253.485 24.8282 249.912 24.8282ZM374.842 73.7255C374.3 75.7855 372.352 77.5202 370.187 77.5202H351.242C350.159 77.5202 348.968 77.4118 348.102 76.6528C348.102 76.6528 347.128 75.8939 346.586 74.5929L334.678 45.8616L328.724 73.7255C328.291 75.7855 326.234 77.5202 324.177 77.5202H300.469C298.412 77.5202 297.221 75.7855 297.546 73.7255L309.129 19.5156C309.562 17.4556 311.619 15.7209 313.676 15.7209H333.162C335.436 15.7209 336.627 16.5882 337.385 18.4314L349.076 48.1384L355.139 19.624C355.572 17.564 357.629 15.8293 359.686 15.8293H383.394C385.451 15.8293 386.75 17.564 386.317 19.624L374.842 73.7255ZM461.015 44.0184C459.824 49.6563 452.571 54.3183 444.885 54.3183H416.196L412.082 73.6171C411.649 75.7855 409.484 77.5202 407.427 77.5202H385.343C383.178 77.5202 381.879 75.7855 382.203 73.6171L393.679 19.5156C394.112 17.4556 396.169 15.7209 398.334 15.7209H453.112C460.799 15.7209 466.103 20.3829 464.804 26.0207L461.015 44.0184ZM429.837 24.6113H422.475L417.82 46.5121H425.182C428.321 46.5121 431.028 45.2111 431.461 43.4763L434.708 27.7555C435.25 26.0208 432.976 24.6113 429.837 24.6113Z" fill="#6FDE9B"/>
</svg>
