<svg width="338" height="198" viewBox="0 0 338 198" fill="none" xmlns="http://www.w3.org/2000/svg">
<path d="M182.987 0H97.5083V10.6834C97.5083 43.5647 119.709 56.0287 136.745 66.0593C150.042 73.8938 158.887 79.5916 162.152 90.3938H122.974C111.221 90.3938 101.664 99.9495 101.664 111.701H184.887V101.018C184.887 69.5611 164.17 57.3938 147.549 47.66C133.481 39.41 124.28 33.3561 121.074 21.3075H182.928C201.448 21.3075 216.585 35.9082 217.416 54.2481C217.416 54.7823 217.476 55.3165 217.476 55.8507C217.476 65.5251 213.38 74.8434 206.197 81.3722C202.873 84.3992 199.074 86.7139 194.919 88.1977C192.366 89.1474 189.754 89.7409 187.024 90.097C187.617 93.5395 187.914 97.16 187.914 101.018V111.464C192.841 111.048 197.649 109.921 202.279 108.259C210.115 105.351 217.06 100.84 222.937 94.7859C231.841 85.6456 237.421 73.6564 238.548 60.8956C241.576 27.8363 215.457 0 182.987 0Z" fill="#BE1622"/>
<path d="M35.2389 149.093C50.4945 149.093 56.7867 155.147 56.7867 168.798V178.295C56.7867 191.886 50.4945 198 35.2389 198H2.35328C0.928633 198 0.216309 197.287 0.216309 195.922V151.23C0.216309 149.805 0.928633 149.153 2.35328 149.153H35.2389V149.093ZM10.9605 187.376C10.9605 188.028 11.2573 188.266 11.8509 188.266H34.9421C43.2526 188.266 45.9831 185.595 45.9831 177.345V169.689C45.9831 161.439 43.2526 158.768 34.9421 158.768H11.9103C11.2573 158.768 11.0199 159.064 11.0199 159.717V187.376H10.9605Z" fill="white"/>
<path d="M194.265 149.093C195.512 149.093 195.63 150.28 194.977 150.933L173.37 172.656L195.987 196.16C196.639 196.813 196.521 198 195.274 198H185.658C184.53 198 183.996 197.703 183.402 197.05L166.01 178.948L148.558 197.05C147.905 197.762 147.43 198 146.243 198H137.101C135.914 198 135.855 196.813 136.448 196.16L159.599 172.3L138.704 150.933C138.17 150.28 138.17 149.093 139.416 149.093H149.033C150.16 149.093 150.695 149.449 151.288 150.043L166.603 166.246L182.868 150.043C183.402 149.39 183.996 149.093 185.124 149.093H194.265Z" fill="#BE1622"/>
<path d="M306.218 149.093C309.78 149.093 311.976 150.221 314.291 154.376L337.561 196.338C338.035 197.228 337.857 197.94 336.73 197.94H327.766C326.876 197.94 326.52 197.703 326.163 197.05L321.177 188.028H288.113L283.246 197.05C282.89 197.762 282.474 197.94 281.643 197.94H272.502C271.314 197.94 271.077 197.228 271.611 196.338L294.702 154.376C297.017 150.162 299.154 149.093 302.063 149.093H306.218ZM292.565 179.957H316.784L305.625 159.48C305.387 159.124 305.209 159.005 304.853 159.005H304.437C304.081 159.005 303.903 159.124 303.666 159.48L292.565 179.957Z" fill="white"/>
<path d="M119.353 158.708C120.421 158.708 120.955 158.234 120.955 157.165V150.518C120.955 149.449 120.362 148.975 119.353 148.975H72.0425V197.822H78.4534H82.3118H119.353C120.421 197.822 120.955 197.347 120.955 196.279V189.631C120.955 188.563 120.362 188.088 119.353 188.088H82.3118V177.404H118.997C120.065 177.404 120.54 176.93 120.54 175.861V170.341C120.54 169.273 120.065 168.798 118.997 168.798H82.3118V158.59H119.353V158.708Z" fill="white"/>
<path d="M259.503 149.034C260.571 149.034 261.046 149.509 261.046 150.577V157.225C261.046 158.293 260.571 158.768 259.503 158.768H224.48C221.809 158.768 220.8 160.252 220.8 162.685V165.059C220.8 167.671 221.987 168.977 224.421 168.977H250.658C258.731 168.977 262.886 173.309 262.886 181.025V186.604C262.886 193.37 258.969 198 250.48 198H211.718C210.649 198 210.115 197.525 210.115 196.457V189.809C210.115 188.741 210.649 188.266 211.718 188.266H248.462C251.133 188.266 252.142 186.782 252.142 184.349V181.5C252.142 178.888 250.955 177.583 248.521 177.583H222.284C214.211 177.583 210.056 173.25 210.056 165.534V160.43C210.056 153.664 213.973 149.034 222.462 149.034H259.503Z" fill="white"/>
</svg>
