<svg width="621" height="421" viewBox="0 0 621 421" fill="none" xmlns="http://www.w3.org/2000/svg">
<path d="M0 303.043C0 300.99 0.880096 299.23 2.34691 297.763C3.81372 296.296 5.86724 295.416 7.92078 295.416H22.0022L64.5397 374.917V295.416H80.3813V386.945C80.3813 388.999 79.5013 390.759 78.0344 392.226C76.5676 393.692 74.5141 394.573 72.4605 394.573H58.6725L16.1349 315.071V386.945C16.1349 388.999 15.2548 390.759 13.788 392.226C12.3212 393.692 10.2677 394.573 8.21416 394.573H0V303.043Z" fill="#E30613"/>
<path d="M127.613 395.452C105.904 395.452 95.0496 383.131 95.0496 358.195C95.0496 333.259 106.784 320.938 129.96 320.938C153.135 320.938 164.87 333.259 164.87 358.195V394.865H157.242C155.189 394.865 153.135 393.985 151.669 392.518C150.202 391.052 149.615 389.291 149.615 387.531C145.508 392.812 138.174 395.452 127.613 395.452ZM149.615 358.195C149.615 350.568 148.442 344.994 145.801 341.473C142.868 337.073 137.587 335.019 129.96 335.019C122.332 335.019 117.345 337.366 114.118 341.473C111.478 345.287 110.304 350.861 110.304 358.195C110.304 365.822 111.478 371.396 114.118 374.917C117.052 379.317 122.332 381.371 129.666 381.371C139.934 381.371 146.681 376.97 149.908 368.169V358.195H149.615Z" fill="#004158"/>
<path d="M177.191 321.526C182.178 321.526 185.405 323.873 186.872 328.86L201.833 378.732L216.795 328.86C217.968 324.166 221.195 321.526 226.476 321.526H234.69L215.034 387.532C213.861 392.226 210.634 394.867 205.353 394.867H198.313C193.326 394.867 190.099 392.52 188.632 387.532L168.977 321.526H177.191Z" fill="#004158"/>
<path d="M243.198 303.336C243.198 301.282 244.078 299.522 245.545 298.056C247.011 296.589 248.772 296.002 251.119 296.002H258.746V305.976C258.746 308.03 257.866 309.79 256.399 311.257C254.932 312.724 253.172 313.31 250.825 313.31H243.198V303.336ZM243.198 328.859C243.198 326.805 243.785 325.045 245.251 323.871C246.718 322.405 248.478 321.525 250.825 321.525H258.453V387.238C258.453 389.291 257.866 391.051 256.399 392.225C254.932 393.692 253.172 394.572 250.825 394.572H243.198V328.859Z" fill="#004158"/>
<path d="M301.87 395.452C280.161 395.452 269.307 383.131 269.307 358.195C269.307 333.259 281.041 320.938 304.217 320.938C327.392 320.938 339.127 333.259 339.127 358.195V383.718C339.127 408.653 327.392 420.975 304.217 420.975C292.776 420.975 283.095 418.628 275.174 413.641V407.187C275.174 403.96 276.934 402.199 280.161 402.199C281.041 402.199 281.921 402.493 283.095 402.786C290.135 405.426 297.176 406.893 304.217 406.893C311.551 406.893 316.831 404.84 320.058 400.439C322.699 396.626 323.872 391.052 323.872 383.718C319.178 391.345 311.844 395.452 301.87 395.452ZM323.872 358.195C323.872 350.568 322.699 344.994 320.058 341.473C317.125 337.073 311.844 335.019 304.217 335.019C296.589 335.019 291.602 337.366 288.375 341.473C285.735 345.287 284.561 350.861 284.561 358.195C284.561 365.822 285.735 371.396 288.375 374.917C291.309 379.317 296.589 381.371 303.923 381.371C314.191 381.371 320.938 376.97 324.165 368.169V358.195H323.872Z" fill="#004158"/>
<path d="M382.838 395.452C361.129 395.452 350.275 383.131 350.275 358.195C350.275 333.259 362.009 320.938 385.185 320.938C408.361 320.938 420.095 333.259 420.095 358.195V394.865H412.468C410.414 394.865 408.361 393.985 406.894 392.518C405.427 391.052 404.84 389.291 404.84 387.531C400.733 392.812 393.399 395.452 382.838 395.452ZM404.84 358.195C404.84 350.568 403.667 344.994 401.027 341.473C398.093 337.073 392.812 335.019 385.185 335.019C377.851 335.019 372.57 337.366 369.343 341.473C366.703 345.287 365.53 350.861 365.53 358.195C365.53 365.822 366.703 371.396 369.343 374.917C372.277 379.317 377.558 381.371 384.892 381.371C395.159 381.371 401.907 376.97 405.134 368.169V358.195H404.84Z" fill="#004158"/>
<path d="M436.817 335.607C434.763 335.607 432.71 334.727 431.243 333.26C429.776 331.793 429.189 330.033 429.189 328.273V321.525H439.164V310.378C439.164 308.324 439.751 306.564 441.217 305.39C442.684 303.924 444.444 303.043 446.791 303.043H454.419V321.525H474.954C477.008 321.525 479.061 322.112 480.528 323.579C481.995 325.046 482.875 326.806 482.875 328.859V335.607H454.419V369.05C454.419 374.037 455.592 377.558 457.939 379.318C459.993 380.785 463.513 381.371 469.087 381.371C471.434 381.371 473.781 381.078 476.714 380.785C481.701 380.785 484.342 382.838 484.342 386.652V393.399C478.768 394.573 473.781 395.159 469.087 395.159C459.112 395.159 451.778 393.399 447.085 389.585C441.804 385.478 439.164 378.438 439.164 368.757V335.313H436.817V335.607Z" fill="#004158"/>
<path d="M558.269 358.195C558.269 383.131 546.534 395.452 523.359 395.452C499.89 395.452 488.448 383.131 488.448 358.195C488.448 333.259 500.183 320.938 523.359 320.938C546.828 320.645 558.269 333.259 558.269 358.195ZM523.359 334.726C516.025 334.726 510.744 336.78 507.517 341.18C504.877 344.994 503.703 350.568 503.703 357.902C503.703 365.529 504.877 371.103 507.517 374.623C510.451 379.024 515.731 381.077 523.359 381.077C530.693 381.077 535.973 379.024 539.2 374.623C541.84 370.81 543.014 365.236 543.014 357.902C543.014 350.274 541.84 344.7 539.2 341.18C535.973 336.78 530.693 334.726 523.359 334.726Z" fill="#004158"/>
<path d="M571.177 321.525H578.804C580.858 321.525 582.912 322.112 584.378 323.579C585.845 325.045 586.725 326.806 586.725 328.859C590.832 323.285 596.993 320.645 605.207 320.645C609.607 320.645 614.888 321.232 620.462 322.405V329.153C620.462 333.26 617.822 335.02 612.834 335.02C610.194 334.726 606.967 334.433 603.447 334.433C595.526 334.433 589.952 338.834 587.019 347.634V386.945C587.019 388.999 586.432 390.759 584.965 392.225C583.498 393.692 581.738 394.279 579.391 394.279H571.764V321.525H571.177Z" fill="#004158"/>
<path d="M334.433 141.107L295.123 104.144L376.384 57.2056L334.433 141.107Z" fill="#EC6250"/>
<path d="M334.433 141.107L376.384 57.2056L314.778 122.625L334.433 141.107Z" fill="#E30613"/>
<path d="M330.62 143.748L291.602 107.078L249.945 190.099L330.62 143.748Z" fill="#004158"/>
<path d="M308.031 2.93363L315.952 14.9615V2.64024C315.952 1.76016 316.245 1.17341 316.538 0.880052C316.832 0.586689 317.418 0.293336 318.005 0.293336C318.592 0.293336 319.179 0.586689 319.472 0.880052C319.765 1.17341 320.059 1.76016 320.059 2.64024V18.7752C320.059 20.5354 319.179 21.4154 317.712 21.4154C317.418 21.4154 317.125 21.4155 316.832 21.1221C316.538 21.1221 316.245 20.8287 315.952 20.5354C315.658 20.242 315.365 19.9486 315.365 19.6553C315.071 19.3619 314.778 19.0685 314.778 18.7752L306.857 6.7473V18.7752C306.857 19.6553 306.564 20.242 306.271 20.5354C305.977 20.8287 305.39 21.1221 304.804 21.1221C304.217 21.1221 303.63 20.8287 303.337 20.5354C303.044 20.242 302.75 19.6553 302.75 18.7752V2.93363C302.75 2.3469 302.75 1.76018 303.044 1.46681C303.337 1.17345 303.63 0.586698 303.924 0.293336C304.217 -2.68625e-05 304.804 0 305.391 0C305.684 0 305.977 -2.68625e-05 306.271 0.293336C306.564 0.293336 306.857 0.586689 306.857 0.880052C307.151 1.17341 307.151 1.46679 307.444 1.76015C307.737 2.34687 307.737 2.64026 308.031 2.93363Z" fill="#004158"/>
<path d="M320.645 238.21C320.645 239.384 320.352 240.557 319.765 241.437C319.178 242.317 318.298 243.197 316.831 243.784C315.658 244.371 314.191 244.664 312.431 244.664C310.377 244.664 308.617 244.371 307.444 243.491C306.564 242.904 305.684 242.317 305.097 241.144C304.51 240.264 304.217 239.384 304.217 238.504C304.217 237.917 304.51 237.624 304.804 237.33C305.097 237.037 305.684 236.743 306.27 236.743C306.564 236.743 307.15 236.743 307.444 237.037C307.737 237.33 308.031 237.623 308.324 238.21C308.617 238.797 308.911 239.384 309.204 239.97C309.497 240.264 309.791 240.85 310.377 241.144C310.964 241.437 311.551 241.437 312.431 241.437C313.604 241.437 314.778 241.144 315.365 240.557C316.245 239.97 316.538 239.384 316.538 238.504C316.538 237.917 316.245 237.33 315.951 236.743C315.658 236.45 315.071 235.863 314.484 235.863C313.898 235.57 313.018 235.277 311.844 235.277C310.377 234.983 309.204 234.397 308.031 234.103C307.15 233.516 306.27 232.93 305.684 232.343C305.097 231.463 304.804 230.583 304.804 229.409C304.804 228.236 305.097 227.356 305.684 226.476C306.27 225.596 307.15 225.009 308.324 224.422C309.497 223.835 310.964 223.835 312.431 223.835C313.604 223.835 314.778 224.129 315.658 224.422C316.538 224.716 317.418 225.009 318.005 225.596C318.592 226.182 319.178 226.769 319.472 227.356C319.765 227.943 319.765 228.529 319.765 229.116C319.765 229.703 319.472 229.996 319.178 230.583C318.885 230.876 318.298 231.17 318.005 231.17C317.418 231.17 317.125 231.169 316.831 230.876C316.538 230.583 316.245 230.289 315.951 229.703C315.658 228.823 315.071 228.236 314.484 227.943C313.898 227.649 313.018 227.356 311.844 227.356C310.671 227.356 309.791 227.649 309.204 227.943C308.617 228.529 308.324 229.116 308.324 229.703C308.324 229.996 308.324 230.583 308.617 230.876C308.911 231.169 309.204 231.463 309.497 231.756C309.791 232.05 310.377 232.05 310.671 232.343C310.964 232.343 311.844 232.636 312.724 232.93C313.898 233.223 315.071 233.516 315.951 233.81C316.831 234.103 317.711 234.397 318.298 234.983C318.885 235.57 319.472 236.157 319.765 236.743C320.352 236.45 320.645 237.33 320.645 238.21Z" fill="#004158"/>
<path d="M202.42 137.001L199.193 124.679L195.966 137.001C195.673 137.881 195.379 138.467 195.379 139.054C195.086 139.347 195.086 139.934 194.499 140.228C194.206 140.521 193.619 140.814 193.033 140.814C192.446 140.814 192.152 140.814 191.859 140.521C191.566 140.228 191.272 139.934 190.979 139.641C190.686 139.347 190.686 138.761 190.392 138.467C190.392 137.881 190.099 137.587 190.099 137.001L186.579 123.213C186.285 122.332 186.285 121.746 186.285 121.452C186.285 120.866 186.579 120.572 186.872 119.986C187.165 119.692 187.752 119.399 188.339 119.399C189.219 119.399 189.512 119.692 189.805 119.986C190.099 120.572 190.392 121.159 190.392 122.039L193.033 134.067L195.966 122.919C196.259 122.039 196.259 121.452 196.553 120.866C196.846 120.279 197.14 119.986 197.433 119.692C197.726 119.399 198.313 119.105 199.193 119.105C199.78 119.105 200.367 119.399 200.953 119.692C201.247 119.986 201.54 120.279 201.833 120.866C202.127 121.159 202.127 122.039 202.42 122.919L205.354 134.067L207.994 122.039C207.994 121.452 208.287 120.866 208.287 120.572C208.287 120.279 208.581 119.986 208.874 119.692C209.167 119.399 209.461 119.399 210.048 119.399C210.634 119.399 210.928 119.692 211.514 119.986C211.808 120.279 212.101 120.866 212.101 121.452C212.101 121.746 212.101 122.332 211.808 123.213L208.287 137.001C207.994 137.881 207.994 138.761 207.701 139.054C207.407 139.347 207.407 139.934 206.821 140.228C206.234 140.521 205.94 140.814 205.354 140.814C204.767 140.814 204.18 140.521 203.887 140.228C203.594 139.934 203.3 139.641 203.007 139.054C203.007 138.761 202.713 138.174 202.42 137.001Z" fill="#203A60"/>
<path d="M431.83 121.452H422.442V126.439H430.95C431.536 126.439 432.123 126.439 432.416 126.733C432.71 127.026 433.003 127.319 433.003 127.906C433.003 128.493 432.71 128.786 432.416 129.08C432.123 129.373 431.536 129.666 430.95 129.666H422.442V135.534H432.123C432.71 135.534 433.296 135.827 433.59 136.12C433.883 136.414 434.177 136.707 434.177 137.294C434.177 137.88 433.883 138.174 433.59 138.467C433.296 138.761 432.71 139.054 432.123 139.054H420.975C420.095 139.054 419.508 138.761 418.922 138.467C418.628 138.174 418.335 137.294 418.335 136.414V120.865C418.335 120.279 418.335 119.692 418.628 119.399C418.922 119.105 419.215 118.812 419.508 118.518C419.802 118.225 420.388 118.225 420.975 118.225H431.83C432.416 118.225 433.003 118.225 433.296 118.518C433.59 118.812 433.883 119.105 433.883 119.692C433.883 120.279 433.59 120.572 433.296 120.865C433.003 121.452 432.416 121.452 431.83 121.452Z" fill="#004158"/>
<path d="M335.607 18.7754C376.971 28.4563 408.654 62.193 415.695 104.437H433.59C426.256 52.5121 386.652 10.8546 335.607 0.586914V18.7754Z" fill="#E30613"/>
<path d="M206.821 104.437C213.861 62.193 245.838 28.4563 286.909 18.7754V0.586914C235.864 10.8546 196.26 52.2187 188.926 104.437H206.821V104.437Z" fill="#004158"/>
<path d="M413.641 154.896C402.787 190.686 373.451 218.262 336.78 226.77V244.958C383.132 235.571 420.389 200.367 432.123 154.896H413.641V154.896Z" fill="#004158"/>
<path d="M286.908 224.716C250.238 216.209 220.902 188.633 210.048 152.842H191.566C203.3 198.313 240.557 233.517 286.908 242.905V224.716Z" fill="#004158"/>
</svg>
