<svg width="1097" height="1112" viewBox="0 0 1097 1112" fill="none" xmlns="http://www.w3.org/2000/svg">
<path d="M948.548 302.262C1046.9 462.492 1041.37 669.134 930.867 823.839L987.224 880.196C1127.56 693.445 1133.09 438.181 1004.9 245.905L948.548 302.262Z" fill="#242E32"/>
<path d="M274.476 167.448C429.182 56.944 635.823 51.4188 796.054 149.767L853.515 92.3052C661.239 -35.879 405.976 -30.3539 219.225 109.986L275.582 166.342L274.476 167.448Z" fill="#242E32"/>
<path d="M766.217 977.439C620.352 1054.79 440.231 1049.27 297.682 961.968L240.22 1019.43C414.815 1136.56 643.558 1142.09 822.574 1036.01L765.112 978.544L766.217 977.439Z" fill="#242E32"/>
<path d="M148.502 797.317C60.0991 655.872 54.574 475.751 133.032 328.781L75.5696 271.319C-29.4088 451.44 -24.9887 679.078 92.1451 853.674L148.502 797.317Z" fill="#242E32"/>
</svg>
