<svg width="315" height="215" viewBox="0 0 315 215" fill="none" xmlns="http://www.w3.org/2000/svg">
<g clip-path="url(#clip0_4384_554)">
<path d="M0.0654297 162.69H2.42537V170.478H12.2454V162.69H14.6053V181.551H12.2454V172.578H2.42537V181.551H0.0654297V162.69Z" fill="white"/>
<path d="M23.1928 172.822C24.9628 172.822 26.2804 173.361 27.4866 174.197V172.499C27.4866 170.669 26.7918 169.267 23.9729 169.267C22.6291 169.267 21.3442 169.668 20.0856 170.748L18.6893 169.267C20.3806 167.864 22.203 167.272 24.163 167.272C27.7816 167.272 29.7417 169.188 29.7417 172.012V181.551H27.4866V180.043C26.4968 181.07 25.048 181.873 23.1928 181.873C19.9479 181.873 17.9092 179.826 17.9092 177.344C17.9026 174.869 19.9414 172.822 23.1928 172.822ZM20.2101 177.351C20.2101 179.023 21.6064 179.885 23.7238 179.885C25.1464 179.885 26.5164 179.128 27.4801 178.134V176.251C26.405 175.336 25.1464 174.823 23.7238 174.823C21.6064 174.816 20.2101 175.679 20.2101 177.351Z" fill="white"/>
<path d="M47.0676 179.609V184.513H44.8126V181.551H33.439V167.594H35.694V179.609H42.5641V167.594H44.8191V179.609H47.0676Z" fill="white"/>
<path d="M59.7066 181.551V171.018L51.8467 181.551H49.5654V167.594H51.8205V178.128L59.6804 167.594H61.9617V181.551H59.7066Z" fill="white"/>
<path d="M71.7028 167.272C75.8327 167.272 78.4089 170.373 78.4089 174.573C78.4089 178.773 75.8327 181.873 71.7028 181.873C67.5729 181.873 64.9966 178.773 64.9966 174.573C64.99 170.373 67.5663 167.272 71.7028 167.272ZM71.7028 179.879C74.4954 179.879 76.1014 177.805 76.1014 174.573C76.1014 171.34 74.4888 169.267 71.7028 169.267C68.9102 169.267 67.3041 171.34 67.3041 174.573C67.2975 177.805 68.9102 179.879 71.7028 179.879Z" fill="white"/>
<path d="M91.1004 172.986V167.601H93.3555V181.557H91.1004V174.928H83.6994V181.557H81.4443V167.601H83.6994V172.986H91.1004Z" fill="white"/>
<path d="M101.667 172.822C103.437 172.822 104.755 173.361 105.961 174.197V172.499C105.961 170.669 105.266 169.267 102.448 169.267C101.104 169.267 99.8188 169.668 98.5602 170.748L97.1639 169.267C98.8552 167.864 100.678 167.272 102.638 167.272C106.256 167.272 108.216 169.188 108.216 172.012V181.551H105.961V180.043C104.971 181.07 103.523 181.873 101.667 181.873C98.4225 181.873 96.3838 179.826 96.3838 177.344C96.3838 174.869 98.4225 172.822 101.667 172.822ZM98.6913 177.351C98.6913 179.023 100.088 179.885 102.205 179.885C103.628 179.885 104.998 179.128 105.961 178.134V176.251C104.886 175.336 103.628 174.823 102.205 174.823C100.088 174.816 98.6913 175.679 98.6913 177.351Z" fill="white"/>
<path d="M123.884 167.594V181.551H121.629V169.537H116.102V177.621C116.102 180.609 114.49 181.88 111.651 181.88C111.356 181.88 110.871 181.854 110.576 181.827V179.806C111.035 179.859 111.33 179.885 111.756 179.885C113.343 179.885 113.847 178.997 113.847 177.463V167.601H123.884V167.594Z" fill="white"/>
<path d="M127.725 167.594H129.98V172.874H132.504C136.155 172.874 138.135 174.434 138.135 177.213C138.135 179.991 136.149 181.551 132.504 181.551H127.732V167.594H127.725ZM132.34 174.816H130.006V179.609H132.34C134.838 179.609 135.828 178.825 135.828 177.213C135.821 175.6 134.831 174.816 132.34 174.816Z" fill="white"/>
<path d="M150.551 172.986V167.601H152.806V181.557H150.551V174.928H143.15V181.557H140.895V167.601H143.15V172.986H150.551Z" fill="white"/>
<path d="M161.125 172.822C162.895 172.822 164.213 173.361 165.419 174.197V172.499C165.419 170.669 164.724 169.267 161.905 169.267C160.561 169.267 159.276 169.668 158.018 170.748L156.621 169.267C158.313 167.864 160.135 167.272 162.095 167.272C165.72 167.272 167.674 169.188 167.674 172.012V181.551H165.419V180.043C164.429 181.07 162.98 181.873 161.125 181.873C157.88 181.873 155.841 179.826 155.841 177.344C155.841 174.869 157.88 172.822 161.125 172.822ZM158.149 177.351C158.149 179.023 159.545 179.885 161.663 179.885C163.085 179.885 164.455 179.128 165.419 178.134V176.251C164.344 175.336 163.085 174.823 161.663 174.823C159.545 174.816 158.149 175.679 158.149 177.351Z" fill="white"/>
<path d="M176.15 175.784L172.446 181.551H169.765L173.764 175.461C171.804 174.895 170.84 173.519 170.84 171.689C170.84 169.049 172.748 167.594 176.262 167.594H182.004V181.551H179.749V175.784H176.15ZM179.749 173.842V169.53H176.393C174.164 169.53 173.095 170.392 173.095 171.683C173.095 172.973 174.17 173.835 176.393 173.835H179.749V173.842Z" fill="white"/>
<path d="M196.223 167.594V174.869L202.365 167.594H205.132L200.326 173.091L205.905 181.551H203.355L198.93 174.678L196.223 177.805V181.551H193.968V167.594H196.223Z" fill="white"/>
<path d="M213.902 167.272C218.032 167.272 220.609 170.373 220.609 174.573C220.609 178.773 218.032 181.873 213.902 181.873C209.773 181.873 207.196 178.773 207.196 174.573C207.196 170.373 209.773 167.272 213.902 167.272ZM213.902 179.879C216.695 179.879 218.301 177.805 218.301 174.573C218.301 171.34 216.688 169.267 213.902 169.267C211.11 169.267 209.504 171.34 209.504 174.573C209.504 177.805 211.11 179.879 213.902 179.879Z" fill="white"/>
<path d="M223.644 181.551V167.594H225.761L231.124 176.08L236.486 167.594H238.603V181.551H236.348V171.637L231.812 178.641H230.416L225.879 171.61V181.551H223.644Z" fill="white"/>
<path d="M244.706 169.537V181.551H242.451V167.594H253.825V181.551H251.57V169.537H244.706Z" fill="white"/>
<path d="M262.144 172.822C263.913 172.822 265.231 173.361 266.437 174.197V172.499C266.437 170.669 265.742 169.267 262.924 169.267C261.58 169.267 260.295 169.668 259.036 170.748L257.64 169.267C259.331 167.864 261.154 167.272 263.114 167.272C266.739 167.272 268.692 169.188 268.692 172.012V181.551H266.437V180.043C265.447 181.07 263.999 181.873 262.144 181.873C258.899 181.873 256.86 179.826 256.86 177.344C256.86 174.869 258.899 172.822 262.144 172.822ZM259.167 177.351C259.167 179.023 260.564 179.885 262.681 179.885C264.104 179.885 265.474 179.128 266.437 178.134V176.251C265.362 175.336 264.104 174.823 262.681 174.823C260.564 174.816 259.167 175.679 259.167 177.351Z" fill="white"/>
<path d="M282.053 172.986V167.601H284.308V181.557H282.053V174.928H274.652V181.557H272.396V167.601H274.652V172.986H282.053Z" fill="white"/>
<path d="M298.284 181.551V171.018L290.424 181.551H288.143V167.594H290.398V178.128L298.258 167.594H300.539V181.551H298.284Z" fill="white"/>
<path d="M309.153 175.784L305.449 181.551H302.768L306.766 175.461C304.806 174.895 303.843 173.519 303.843 171.689C303.843 169.049 305.75 167.594 309.264 167.594H315.007V181.551H312.751V175.784H309.153ZM312.745 173.842V169.53H309.389C307.16 169.53 306.091 170.392 306.091 171.683C306.091 172.973 307.166 173.835 309.389 173.835H312.745V173.842Z" fill="white"/>
<path d="M0.0654297 190.432H11.7603V192.532H2.42537V198.509H10.8228V200.609H2.42537V207.186H12.0028V209.286H0.0654297V190.432Z" fill="white"/>
<path d="M15.0312 209.286V195.329H19.9412C23.4287 195.329 25.2249 196.732 25.2249 198.996C25.2249 200.451 24.5825 201.419 23.4287 201.88C24.9037 202.341 25.9525 203.44 25.9525 205.25C25.9525 207.62 24.1301 209.292 20.2887 209.292H15.0312V209.286ZM20.0265 197.272H17.129V201.07H20.0265C21.8226 201.07 22.9239 200.583 22.9239 199.154C22.9239 197.726 21.8226 197.272 20.0265 197.272ZM20.4526 202.986H17.1224V207.35H20.4526C22.4126 207.35 23.645 206.653 23.645 205.171C23.645 203.69 22.4126 202.986 20.4526 202.986Z" fill="white"/>
<path d="M31.2365 215H28.9814V195.329H31.2365V196.705C32.3116 195.678 33.8652 195.007 35.5303 195.007C39.5291 195.007 41.6203 197.969 41.6203 202.308C41.6203 206.646 39.5291 209.608 35.5303 209.608C33.8652 209.608 32.3116 208.937 31.2365 207.936V215ZM35.1829 197.002C33.8128 197.002 32.2067 197.647 31.2365 198.753V205.895C32.2001 206.975 33.8128 207.62 35.1829 207.62C38.0803 207.62 39.3128 205.547 39.3128 202.314C39.3128 199.082 38.0803 197.002 35.1829 197.002Z" fill="white"/>
<path d="M49.2705 200.556C51.0404 200.556 52.3581 201.096 53.5643 201.932V200.234C53.5643 198.404 52.8694 197.002 50.0506 197.002C48.7067 197.002 47.4218 197.403 46.1632 198.483L44.7669 197.002C46.4582 195.599 48.2806 195.007 50.2407 195.007C53.8592 195.007 55.8193 196.923 55.8193 199.747V209.286H53.5643V207.778C52.5744 208.799 51.1256 209.608 49.2705 209.608C46.0255 209.608 43.9868 207.561 43.9868 205.079C43.9868 202.604 46.0255 200.556 49.2705 200.556ZM46.2943 205.086C46.2943 206.758 47.6906 207.62 49.808 207.62C51.2305 207.62 52.6006 206.863 53.5643 205.869V203.98C52.4892 203.065 51.2305 202.551 49.808 202.551C47.6841 202.551 46.2943 203.414 46.2943 205.086Z" fill="white"/>
<path d="M67.2454 205.461C67.2454 203.762 65.2853 202.926 63.0368 202.926H61.5553V200.932H63.0302C65.1476 200.932 66.7078 200.175 66.7078 198.858C66.7078 197.673 65.5803 197.002 63.948 197.002C62.7418 197.002 61.3979 197.436 60.2442 198.43L58.7168 197.054C60.218 195.626 61.9879 195.007 63.8431 195.007C66.7406 195.007 69.0219 196.356 69.0219 198.726C69.0219 200.372 67.9468 201.419 66.557 201.959C68.4319 202.498 69.5594 203.762 69.5594 205.461C69.5594 207.884 67.4945 209.608 63.9283 209.608C61.4569 209.608 59.4772 208.825 58.0547 207.561L59.5559 206.001C60.8997 207.054 62.1846 207.62 63.9808 207.62C66.0654 207.62 67.2454 206.837 67.2454 205.461Z" fill="white"/>
<path d="M82.7291 209.286V198.753L74.8692 209.286H72.5879V195.329H74.8429V205.863L82.7029 195.329H84.9841V209.286H82.7291Z" fill="white"/>
<path d="M93.5915 203.526L89.8877 209.292H87.2065L91.2053 203.203C89.2453 202.637 88.2816 201.261 88.2816 199.431C88.2816 196.791 90.1893 195.336 93.7029 195.336H99.4455V209.292H97.1904V203.526H93.5915ZM97.1904 201.583V197.272H93.8341C91.6052 197.272 90.5367 198.134 90.5367 199.424C90.5367 200.715 91.6118 201.577 93.8341 201.577H97.1904V201.583Z" fill="white"/>
<path d="M139.637 137.351H0V0H139.637V137.351ZM12.6388 124.659H127.004V12.6924H12.6388V124.659Z" fill="white"/>
<path d="M104.362 102.112H75.9509L51.2502 40.3286H50.0112V102.105H35.4058V35.4438H63.9086L88.6028 97.2204H89.7566V35.4438H104.362V102.112Z" fill="white"/>
</g>
<defs>
<clipPath id="clip0_4384_554">
<rect width="315" height="215" fill="white"/>
</clipPath>
</defs>
</svg>
