<svg width="408" height="61" viewBox="0 0 408 61" fill="none" xmlns="http://www.w3.org/2000/svg">
<path d="M58.3929 28.9422C58.3929 34.4082 57.7423 39.0542 56.4411 42.8804C55.194 46.7065 53.3235 49.8221 50.8295 52.2272C48.3897 54.6322 45.3806 56.4086 41.8022 57.5565C38.2238 58.6496 34.1303 59.1962 29.5218 59.1962H0V1.80376H25.3741C27.9223 1.80376 30.4977 1.91308 33.1002 2.13172C35.7569 2.35036 38.3051 2.78764 40.7449 3.44355C43.1847 4.09946 45.4619 5.02868 47.5764 6.23118C49.7451 7.43369 51.6157 9.01882 53.188 10.9866C54.8145 12.9543 56.0886 15.3867 57.0104 18.2836C57.9321 21.1259 58.3929 24.5421 58.3929 28.5323V28.9422ZM7.97006 51.9812H26.7566C31.6905 51.9812 35.6755 51.4619 38.7117 50.4234C41.748 49.3849 44.0793 47.9091 45.7059 45.996C47.3866 44.0282 48.4981 41.6779 49.0403 38.9449C49.6367 36.1573 49.9349 33.0417 49.9349 29.5981C49.9349 25.9906 49.5011 22.9023 48.6337 20.3333C47.7662 17.7643 46.3565 15.6599 44.4046 14.0202C42.507 12.3257 40.013 11.0959 36.9225 10.3306C33.8863 9.51076 30.1724 9.07348 25.7807 9.01882H7.97006V51.9812Z" fill="#F8F8F8"/>
<path d="M122.833 43.3723C122.833 45.9413 122.318 48.319 121.288 50.5054C120.312 52.6371 118.658 54.4955 116.327 56.0807C113.996 57.6111 110.905 58.8136 107.056 59.6882C103.261 60.5627 98.5164 61 92.8235 61C87.1306 61 82.4679 60.3441 78.8353 59.0323C75.2569 57.7204 72.4104 56.0533 70.2959 54.0309C68.2356 51.9539 66.7446 49.6855 65.8229 47.2258C64.9554 44.7115 64.4132 42.2518 64.1964 39.8468H72.817C73.1424 44.2742 74.9858 47.7177 78.3473 50.1774C81.763 52.5824 86.6698 53.7849 93.0675 53.7849C99.6821 53.7849 104.887 53.0197 108.682 51.4893C112.532 49.9041 114.484 47.3898 114.538 43.9462C114.592 40.5027 112.911 38.043 109.496 36.5672C106.08 35.0914 100.766 34.1349 93.5555 33.6976C88.7843 33.5336 84.6366 33.2056 81.1124 32.7137C77.6425 32.2218 74.7689 31.4019 72.4917 30.254C70.2146 29.1062 68.5338 27.5484 67.4495 25.5806C66.3651 23.6129 65.8229 21.0439 65.8229 17.8737C65.8229 15.5233 66.3651 13.2823 67.4495 11.1505C68.5338 9.01882 70.2417 7.1604 72.5731 5.57527C74.9587 3.93549 77.9949 2.65099 81.6817 1.72178C85.3685 0.737905 89.8144 0.245969 95.0194 0.245969C100.604 0.245969 105.131 0.874554 108.601 2.13172C112.125 3.38889 114.89 5.00135 116.896 6.96909C118.957 8.93683 120.393 11.1505 121.207 13.6102C122.074 16.0699 122.616 18.5022 122.833 20.9073H114.213C113.996 18.3383 113.372 16.2065 112.342 14.5121C111.312 12.763 109.929 11.3692 108.194 10.3306C106.514 9.29212 104.535 8.55421 102.257 8.11694C99.9803 7.67966 97.4863 7.46102 94.7754 7.46102C91.685 7.46102 88.8656 7.65233 86.3174 8.03495C83.8233 8.41757 81.6546 9.01882 79.8112 9.83871C78.022 10.6039 76.6123 11.6151 75.5822 12.8723C74.6062 14.0748 74.1183 15.5506 74.1183 17.2997C74.1183 18.9942 74.4978 20.4153 75.2569 21.5632C76.0701 22.6564 77.3171 23.5582 78.9979 24.2688C80.6787 24.9247 82.8203 25.444 85.4228 25.8266C88.0794 26.1546 91.197 26.4279 94.7754 26.6465C99.7635 26.9198 104.02 27.3844 107.544 28.0403C111.068 28.6416 113.969 29.5708 116.246 30.828C118.523 32.0851 120.177 33.7249 121.207 35.7473C122.291 37.7697 122.833 40.3114 122.833 43.3723Z" fill="#F8F8F8"/>
<path d="M160.956 9.01882V59.1962H152.986V9.01882H127.693V1.80376H186.33V9.01882H160.956Z" fill="#F8F8F8"/>
<path d="M201.599 38.207V59.1962H193.629V1.80376H231.608C234.59 1.80376 237.301 2.21371 239.741 3.0336C242.181 3.79884 244.241 4.97402 245.922 6.55914C247.657 8.08961 248.985 10.03 249.907 12.3804C250.883 14.7307 251.371 17.4637 251.371 20.5793C251.208 25.1707 250.097 28.8056 248.036 31.4839C246.03 34.1622 243.238 36.0479 239.66 37.1411L252.265 59.1143H242.913L231.12 38.207H201.599ZM201.599 30.9919H228.925C233.642 30.9919 237.139 30.0627 239.416 28.2043C241.747 26.3459 242.913 23.6402 242.913 20.0874C242.913 16.5892 241.828 13.8835 239.66 11.9704C237.491 10.0027 234.211 9.01882 229.819 9.01882H201.599V30.9919Z" fill="#F8F8F8"/>
<path d="M323.005 40.9126C321.433 47.7997 317.963 52.8831 312.596 56.1626C307.228 59.3875 300.342 61 291.938 61C286.842 61 282.288 60.3168 278.276 58.9503C274.263 57.5838 270.875 55.6434 268.11 53.129C265.345 50.56 263.23 47.4444 261.766 43.7823C260.302 40.1201 259.57 35.9933 259.57 31.4019V29.9261C259.57 25.1707 260.302 20.9346 261.766 17.2177C263.23 13.5009 265.345 10.3853 268.11 7.87097C270.875 5.30197 274.263 3.36156 278.276 2.04973C282.288 0.683245 286.842 0 291.938 0C296.276 0 300.207 0.437277 303.731 1.31183C307.309 2.18638 310.4 3.52554 313.002 5.32931C315.659 7.07841 317.828 9.29212 319.508 11.9704C321.189 14.6487 322.301 17.7917 322.843 21.3992H314.059C313.517 19.2675 312.596 17.3271 311.294 15.578C310.047 13.7742 308.475 12.2437 306.577 10.9866C304.734 9.67473 302.565 8.69086 300.071 8.03495C297.631 7.32438 294.92 6.96909 291.938 6.96909C287.981 6.96909 284.511 7.57034 281.529 8.77285C278.547 9.9207 276.053 11.5332 274.047 13.6102C272.04 15.6873 270.522 18.2016 269.492 21.1532C268.516 24.0502 268.028 27.2478 268.028 30.746C268.028 34.0802 268.516 37.1685 269.492 40.0108C270.522 42.853 272.04 45.3127 274.047 47.3898C276.053 49.4668 278.547 51.1066 281.529 52.3091C284.511 53.457 287.981 54.0309 291.938 54.0309C297.957 54.0309 302.918 52.8831 306.821 50.5874C310.779 48.237 313.3 45.0121 314.385 40.9126H323.005Z" fill="#F8F8F8"/>
<path d="M361.177 9.01882V59.1962H353.206V9.01882H327.914V1.80376H386.551V9.01882H361.177Z" fill="#F8F8F8"/>
<path d="M408 47.3078V60.672H394.662V47.3078H408Z" fill="#F8F8F8"/>
</svg>
