<svg width="244" height="188" viewBox="0 0 244 188" fill="none" xmlns="http://www.w3.org/2000/svg">
<path fill-rule="evenodd" clip-rule="evenodd" d="M143.704 35.4904C153.523 35.5647 161.78 27.3232 161.483 17.7452C161.483 7.94451 153.598 0 143.853 0C134.108 0.0742477 126 7.57327 126 17.7452C126 28.1399 134.257 35.4162 143.704 35.4904ZM170.38 76.0156C170.692 76.2582 171.004 76.5008 171.622 76.4462C172.272 76.2976 172.962 76.1097 173.682 75.9137C174.323 75.7393 174.986 75.5586 175.666 75.3935C180.721 74.06 185.795 72.7441 190.868 71.4282L190.871 71.4275L190.874 71.4268C195.945 70.1113 201.016 68.7959 206.07 67.4629C211.45 66.0592 216.848 64.6731 222.247 63.287C227.645 61.9009 233.043 60.5148 238.424 59.1112C239.651 58.8305 239.796 58.5497 239.29 57.4268C234.74 47.3206 228.457 38.3372 220.514 30.4066C216.036 25.8448 211.053 21.9145 205.637 18.4054C201.087 15.4578 196.248 12.861 191.193 10.7556C190.326 10.4046 189.749 10.4748 189.171 11.1065C188.593 11.7381 187.943 12.2995 187.293 12.8609L187.293 12.861C184.731 15.0708 182.15 17.2631 179.569 19.4554L179.566 19.458L179.566 19.4584L179.565 19.4588C176.984 21.6518 174.402 23.8448 171.839 26.0553C169.925 27.7046 168.011 29.3364 166.097 30.9681C164.184 32.5998 162.27 34.2316 160.356 35.8808C157.756 38.1267 155.156 40.355 152.556 42.5834C149.957 44.8116 147.357 47.0399 144.757 49.2857C144.685 49.3453 144.616 49.4022 144.551 49.4562C143.96 49.9472 143.652 50.2033 143.348 50.1979C143.018 50.1921 142.692 49.876 142.013 49.2155L142.011 49.2138C130.818 38.3361 119.625 27.4584 108.431 16.5105C107.637 15.6683 107.059 15.6683 106.12 16.2298C103.015 18.1949 99.9097 20.16 96.9488 22.4058C92.5435 25.7746 88.4271 29.4241 84.744 33.4946C84.3107 33.9859 84.0218 34.4772 84.6718 35.0386C85.2303 35.5397 85.7378 36.0656 86.2549 36.6016C86.607 36.9664 86.9636 37.336 87.3438 37.7056L131.541 80.6572C132.769 81.8503 132.841 81.8503 133.78 80.4466C139.341 72.3756 149.235 68.3051 159.417 70.4807C163.461 71.3229 166.928 73.2178 170.105 75.8146C170.202 75.877 170.291 75.9463 170.38 76.0156ZM146.886 183.29H146.886H146.886C148.989 183.474 151.019 183.651 152.851 183.517C159.477 183.587 165.469 182.885 171.391 181.761C179.357 180.145 187.041 177.475 194.372 173.752C198.672 171.574 202.761 168.975 206.709 166.164C207.484 165.602 207.977 164.97 207.766 163.846C207.132 160.791 206.515 157.736 205.898 154.681L205.898 154.679L205.898 154.678C205.281 151.622 204.664 148.566 204.03 145.51C203.361 142.142 202.674 138.774 201.988 135.406L201.988 135.404L201.985 135.394C201.298 132.021 200.611 128.649 199.941 125.277C198.743 119.165 197.544 113.053 196.275 106.941C195.993 105.817 196.275 105.536 197.333 105.255C199.763 104.623 202.175 103.974 204.587 103.325L204.594 103.323C207.008 102.673 209.423 102.023 211.855 101.391C214.966 100.554 218.078 99.7301 221.183 98.9081L221.184 98.9079C225.114 97.8677 229.034 96.8301 232.932 95.7706C234.589 95.3492 236.245 94.8926 237.901 94.4361L237.902 94.4358C239.559 93.9792 241.215 93.5225 242.872 93.101C243.718 92.8902 244 92.3985 244 91.5554C244 89.113 243.747 86.6706 243.498 84.2711L243.497 84.2708C243.475 84.0585 243.453 83.8466 243.432 83.6351C243.409 83.4178 243.387 83.201 243.365 82.9845C242.731 77.0832 241.533 71.2522 239.7 65.5617C239.065 63.5946 238.995 63.5243 237.021 64.0864C231.313 65.6313 225.535 67.1763 219.757 68.7212L219.75 68.7231C212.279 70.76 204.808 72.7268 197.337 74.6935L197.335 74.6942L197.333 74.6946L175.339 80.5959C173.717 81.0174 173.717 81.0877 174.422 82.4927C177.101 87.832 177.665 93.4523 176.114 99.1428C173.929 107.222 168.712 112.631 160.817 115.442C160.041 115.793 159.618 116.214 159.407 117.057C158.209 121.694 157.01 126.261 155.741 130.827L149.608 153.378C147.846 159.771 146.154 166.094 144.462 172.487C143.616 175.438 142.841 178.389 142.065 181.339C141.783 182.533 142.065 182.955 143.193 183.025C144.432 183.077 145.671 183.185 146.886 183.29ZM208.509 121.492C208.435 131.536 216.454 139.274 226.18 139.2C235.981 139.274 244.074 131.462 243.999 121.343C243.925 111.224 236.129 103.709 226.254 103.709C216.231 103.709 208.509 111.298 208.509 121.492ZM19.1937 10.5456H36.6226C38.2891 10.5456 38.3586 10.6867 38.4974 12.4507C38.6363 13.8618 38.7925 15.2906 38.9488 16.7194L38.9488 16.7195C39.105 18.1483 39.2613 19.5771 39.4001 20.9882L39.5111 21.9335C39.8205 24.5684 40.1241 27.1529 40.3723 29.7375C40.7194 32.7715 41.0666 35.8055 41.3444 38.9101C41.6013 41.1475 41.8388 43.3848 42.0774 45.6326L42.0774 45.6328L42.0775 45.6339C42.2903 47.6389 42.504 49.6522 42.7332 51.6812C42.872 53.0218 43.0283 54.3624 43.1845 55.703L43.1845 55.7031C43.3407 57.0437 43.497 58.3843 43.6358 59.7248C43.983 62.6883 44.3302 65.6517 44.608 68.6152C44.8857 71.4376 45.1635 74.2599 45.5107 77.0117C45.6843 78.4581 45.8579 79.9222 46.0315 81.3863C46.205 82.8504 46.3786 84.3145 46.5522 85.7609C46.7953 88.0189 47.0383 90.2592 47.2814 92.4996L47.2817 92.5025C47.5246 94.7416 47.7675 96.9808 48.0104 99.2376C48.5659 104.388 49.1214 109.539 49.6769 114.619L49.677 114.62C50.1631 118.783 50.6491 122.945 51.0657 127.108C51.3781 130.001 51.7079 132.911 52.0377 135.821L52.0378 135.822C52.3677 138.733 52.6975 141.643 53.01 144.536C53.7043 151.098 54.3987 157.589 55.1625 164.151C55.4054 166.302 55.6482 168.469 55.891 170.637L55.8916 170.643C56.1347 172.812 56.3777 174.982 56.6207 177.134C56.7943 178.792 56.9678 180.432 57.1414 182.072C57.315 183.713 57.4887 185.354 57.6623 187.012C57.7317 187.647 57.454 188 56.8291 188H55.9958H26.9707C25.2454 188 25.2349 187.93 24.9621 186.129L24.957 186.095C24.2627 180.944 23.4988 175.864 22.735 170.784C21.9018 164.716 21.0685 158.718 20.1658 152.65C19.5537 148.234 18.8875 143.872 18.215 139.469L17.9438 137.692C17.2494 132.682 16.555 127.673 15.8607 122.734C15.5829 120.758 15.2878 118.782 14.9927 116.807C14.6976 114.831 14.4025 112.855 14.1247 110.88L13.8158 108.654C13.0845 103.383 12.3467 98.0646 11.5555 92.7462C11.2212 90.3345 10.8548 87.9228 10.4871 85.5033L10.4871 85.5031C10.091 82.8967 9.69359 80.2812 9.3335 77.6467C8.98631 75.1772 8.65649 72.69 8.32666 70.2028C7.99683 67.7156 7.66699 65.2284 7.3198 62.7588C6.70766 58.3425 6.04156 53.981 5.36906 49.5777L5.36904 49.5776L5.09779 47.8004C4.82003 45.8601 4.55964 43.9197 4.29925 41.9794C4.03886 40.039 3.77847 38.0987 3.50071 36.1583C3.16943 33.6336 2.78875 31.0587 2.40287 28.4485L2.40284 28.4483C2.14168 26.6818 1.87813 24.8991 1.62589 23.105C1.34814 21.2705 1.08775 19.4359 0.827353 17.6014C0.566961 15.7669 0.306569 13.9324 0.0288173 12.0979C-0.110059 10.9689 0.237131 10.5456 1.41758 10.6161C4.36869 10.6161 7.33716 10.5985 10.3056 10.5809L10.3061 10.5809C13.2744 10.5632 16.2427 10.5456 19.1937 10.5456ZM126.821 92.4665C126.965 91.7004 127.038 91.004 127.11 90.3076C127.178 89.5848 126.602 89.172 126.05 88.7766L125.952 88.7058C109.95 73.2453 93.9482 57.8544 77.9464 42.4636C76.7155 41.2797 76.6431 41.2797 75.6294 42.6725C71.7195 48.0349 68.244 53.6759 65.4926 59.6651C60.3518 71.0168 57.8175 82.8559 57.6727 95.1825C57.6727 97.9419 57.8546 100.658 58.0382 103.399L58.0384 103.401L58.0385 103.403C58.0865 104.119 58.1346 104.838 58.1796 105.559C58.252 106.534 58.7588 106.952 59.6277 107.231C64.2617 108.693 68.8957 110.156 73.5297 111.688L73.5301 111.688C87.7939 116.354 102.058 121.02 116.394 125.616C117.335 125.895 117.625 126.243 117.335 127.218C116.466 130.212 115.67 133.137 114.874 136.132C113.643 140.797 112.34 145.463 111.036 150.129L111.036 150.13C109.009 157.442 106.981 164.755 104.882 172.067C104.592 173.042 104.809 173.599 105.75 174.087C114.077 178.544 122.838 181.608 132.034 183.488C132.83 183.697 133.192 183.488 133.41 182.653C134.351 179.101 135.364 175.55 136.378 171.998L136.378 171.998C137.35 168.416 138.344 164.856 139.335 161.305L139.335 161.305L139.336 161.303L139.336 161.301L139.337 161.3C140.118 158.501 140.898 155.708 141.664 152.916C142.352 150.478 143.021 148.058 143.691 145.638C144.361 143.218 145.031 140.798 145.719 138.36L145.719 138.357C147.384 132.508 149.049 126.66 150.642 120.811C151.077 119.279 150.859 119.07 149.194 119C145.067 118.791 141.229 117.677 137.826 115.448C129.427 109.947 125.59 102.286 126.821 92.4665ZM88.7084 126C78.9616 126 71.0004 133.945 71.0004 143.671C70.926 153.324 78.7383 161.417 88.7084 161.491C98.7528 161.491 106.491 153.621 106.491 143.671C106.491 133.648 98.3808 126 88.7084 126Z" fill="white"/>
</svg>
