<svg width="216" height="165" viewBox="0 0 216 165" fill="none" xmlns="http://www.w3.org/2000/svg">
<path d="M216 81.9449C216 82.6312 216 83.3175 216 84.0038C215.929 84.4842 215.787 85.0333 215.787 85.5137C215.644 92.7199 214.292 99.7888 212.086 106.652C210.663 110.976 208.883 115.162 206.891 119.211C204.186 124.77 200.557 129.849 196.501 134.585C191.377 140.624 185.47 145.909 178.851 150.301C171.45 155.242 163.408 159.017 154.726 161.419C149.816 162.792 144.905 163.821 139.852 164.302C138.643 164.439 138.358 164.164 138.358 162.929C138.216 155.448 138.998 147.899 137.86 140.487C137.575 138.359 137.362 136.3 137.077 134.173C137.006 133.349 137.219 133.006 138.073 132.869C142.414 132.457 146.613 131.29 150.67 129.712C156.007 127.653 160.846 124.77 165.116 121.133C172.375 114.956 177.642 107.544 180.702 98.6907C182.267 94.2984 183.193 89.7688 183.477 85.1019C183.975 78.9251 182.908 72.8857 180.986 66.9148C178.567 59.2282 174.368 52.5024 168.604 46.806C158.996 37.335 147.325 31.9818 133.661 31.2269C125.263 30.8151 116.866 30.9524 108.468 30.9524C99.0744 30.8837 89.6805 30.9524 80.2866 30.9524C65.9822 30.9524 51.6067 30.9524 37.3023 30.9524C35.8079 30.9524 35.5232 31.2955 36.0213 32.6681C36.4483 33.8349 36.8042 35.0016 37.2312 36.0997C40.5048 44.1294 46.0558 50.3748 52.7453 55.5907C60.2178 61.4243 68.473 66.1599 76.7283 70.8267C84.9124 75.425 92.9541 80.2291 100.498 85.6509C111.6 93.6121 120.495 103.495 126.331 115.711C128.679 120.653 130.53 125.8 131.384 131.222C132.024 135.202 132.878 139.251 133.092 143.301C133.448 150.164 133.305 157.095 133.376 163.958C133.376 164.851 133.021 165.056 132.167 164.988C130.174 164.919 128.11 164.919 126.117 164.919C86.7627 164.919 47.3367 164.919 7.98197 164.919C7.41264 164.919 6.91448 164.851 6.13166 164.782C6.55865 162.037 6.70098 159.429 7.41264 156.958C8.69363 152.291 10.9709 148.036 14.3869 144.399C20.7918 137.604 28.6913 133.898 38.2275 133.83C55.3785 133.692 72.6006 133.761 89.7516 133.761C92.3848 133.761 95.0891 133.761 97.7222 133.761C98.7186 133.761 99.2167 133.555 98.6474 132.457C98.1492 131.565 97.9357 130.467 97.5087 129.574C94.0928 122.025 88.613 116.123 81.9234 111.181C73.8816 105.142 65.0571 100.338 56.3036 95.3278C46.4827 89.7001 36.8753 83.9352 28.1931 76.6603C14.8139 65.4049 5.77583 51.7474 2.14636 34.933C0.936544 29.2366 0.224884 23.4717 0.153718 17.6381C-0.0597794 12.0103 0.0113866 6.38264 0.0113866 0.754936C0.0113866 0.549044 0.0825525 0.343153 0.153718 0C0.65188 0 1.07888 0 1.50587 0C17.5182 0 33.5305 0 49.5429 0C75.7319 0 101.921 0.0686306 128.181 0C134.657 0 140.991 0.411783 147.325 1.64713C154.797 3.08838 161.914 5.49044 168.675 8.71608C177.428 12.9712 185.114 18.4616 191.946 25.256C198.991 32.2564 204.613 40.2175 208.528 49.1395C210.378 53.2573 211.872 57.581 213.082 61.9734C214.221 66.1599 214.79 70.415 215.431 74.7387C215.787 77.1407 215.858 79.5428 216 81.9449Z" fill="#B70A17"/>
</svg>
