<svg width="528" height="256" viewBox="0 0 528 256" fill="none" xmlns="http://www.w3.org/2000/svg">
<path d="M198.235 36.1899C197.86 36.1899 197.485 36.1899 197.111 36.5647C196.736 36.9394 196.736 36.9394 196.361 37.3141C196.361 37.6889 195.986 38.0636 195.986 38.4383C195.986 38.8131 195.986 39.5625 195.986 40.312C195.986 41.0615 195.986 41.811 196.361 42.5604C196.361 43.3099 196.736 43.6846 196.736 44.4341C196.736 44.8088 197.111 45.5583 197.485 45.5583C197.86 45.933 197.86 45.933 198.235 46.3078C198.609 46.3078 198.609 46.3077 198.984 45.933C199.359 45.5583 199.359 45.5583 199.734 44.8088C200.108 44.4341 200.108 44.0594 200.108 43.3099C200.108 42.9352 199.734 42.9352 199.734 42.5604L198.235 36.1899Z" fill="#010202"/>
<path d="M187.363 48.5546C186.988 48.1799 186.988 47.8051 186.613 47.4304C186.239 47.0557 186.239 47.0557 185.864 47.0557C185.489 47.0557 185.489 47.0557 185.114 47.4304C184.74 47.8051 184.74 48.1799 184.365 48.5546C184.365 48.9293 183.99 49.3041 183.99 50.0535C184.365 50.803 184.365 51.1777 184.74 51.9272C185.114 52.6767 185.114 53.0514 185.489 53.8009C185.864 54.5503 185.864 54.9251 186.239 55.6745C186.613 56.424 186.613 56.7987 186.988 57.1735C187.363 57.1735 187.738 57.1735 187.738 56.7987C188.112 56.424 188.487 55.6745 188.487 54.5503C188.487 53.8009 188.112 52.3019 187.738 50.803C188.112 49.6788 187.738 48.9293 187.363 48.5546Z" fill="#010202"/>
<path d="M337.257 40.6872C336.883 40.3125 336.508 40.3125 336.133 40.3125C335.758 40.3125 335.384 40.3125 335.009 40.3125C334.634 40.3125 333.885 40.3125 333.51 40.6872C332.761 41.062 332.011 41.062 331.262 41.4367C330.512 41.8114 330.137 42.1862 329.763 42.1862C329.388 42.5609 329.013 42.9356 328.638 42.9356C328.264 43.3104 328.264 43.6851 328.264 43.6851C328.264 44.0598 328.264 44.0598 328.638 44.4346C329.013 44.8093 329.388 44.8093 329.763 44.8093C330.137 44.8093 330.887 44.8093 331.262 44.8093C331.636 44.8093 331.636 44.4346 332.011 44.4346L338.007 41.062C337.632 41.4367 337.632 41.062 337.257 40.6872Z" fill="#010202"/>
<path d="M224.088 226.554C223.713 226.554 223.338 226.179 222.964 226.179C222.589 226.179 222.214 226.179 221.84 226.554C221.465 226.554 220.715 226.929 220.341 227.303C219.591 227.678 219.216 228.053 218.467 228.802C218.092 229.177 217.343 229.552 216.968 230.301C216.593 230.676 216.219 231.051 216.219 231.425C216.219 231.8 215.844 232.175 215.844 232.55C215.844 232.924 216.219 232.924 216.593 233.299C216.968 233.299 217.343 233.299 217.717 233.299C218.092 233.299 218.467 233.299 219.216 232.924L225.212 226.929C224.837 226.929 224.463 226.554 224.088 226.554Z" fill="#010202"/>
<path d="M199.36 212.315C199.36 211.94 199.36 211.94 199.36 211.566C198.986 211.566 198.986 211.191 198.236 211.191C197.861 211.191 197.487 211.191 196.737 211.566C196.362 211.566 195.613 211.94 194.863 212.315C194.114 212.69 193.739 213.065 192.99 213.439C192.24 213.814 191.866 214.189 191.491 214.564C191.116 214.938 190.741 215.313 190.367 215.688C189.992 216.062 189.992 216.437 189.617 216.437C189.617 216.812 189.617 216.812 189.617 217.187C189.992 217.187 189.992 217.561 190.367 217.561C190.741 217.561 191.116 217.561 191.866 217.187C192.24 217.187 192.99 216.812 193.739 216.437C194.489 216.062 194.863 216.062 195.613 215.688C196.362 215.313 196.737 214.938 197.487 214.564C197.861 214.189 198.236 213.814 198.611 213.439C198.986 212.69 199.36 212.69 199.36 212.315Z" fill="#010202"/>
<path d="M215.471 234.799C215.096 234.799 214.347 234.799 213.972 234.424C213.597 234.424 213.597 234.05 213.222 234.05L212.848 233.675C212.473 233.675 212.098 234.05 211.724 234.05C211.349 234.424 210.974 234.799 210.599 235.174C210.225 235.548 210.225 235.923 210.225 236.298C210.225 236.673 210.599 237.047 210.974 237.047C211.349 237.047 211.724 237.422 212.473 237.047C212.848 237.047 213.597 236.673 213.972 236.298C214.347 235.923 215.096 235.548 215.471 235.174C215.846 234.799 216.595 234.424 216.97 233.675C216.595 234.799 216.22 234.799 215.471 234.799Z" fill="#010202"/>
<path d="M391.222 87.1543C390.847 87.1543 390.473 87.1543 389.349 87.1543C388.224 87.1543 386.725 87.1544 384.852 87.5291C368.363 36.94 320.397 0.59082 264.562 0.59082C208.352 0.59082 160.761 36.94 143.898 87.5291C141.649 87.1544 139.776 87.1543 138.652 87.1543C137.902 87.1543 137.153 87.1543 136.778 87.1543H0L4.49681 93.8996C22.1093 120.506 47.5912 122.379 55.0859 122.379C56.2101 122.379 56.5848 122.379 56.9596 122.379C58.8332 122.379 79.0689 122.005 102.677 122.005C115.418 122.005 127.035 122.005 137.153 122.379C137.153 124.253 137.153 126.127 137.153 128C137.153 130.249 137.153 132.497 137.153 134.746C131.906 133.996 128.159 134.371 128.159 134.371C128.159 134.371 127.784 134.371 126.66 134.371H52.8375C65.2037 156.105 85.4393 160.227 95.1824 160.977C90.3109 160.977 119.915 160.977 141.275 160.977C142.024 163.975 143.148 167.347 144.273 170.345H108.298C119.915 190.956 146.521 195.827 157.388 196.577C179.872 231.802 219.594 255.41 264.562 255.41C309.53 255.41 349.252 231.802 371.736 196.577C382.978 195.452 408.46 190.581 420.077 170.345H384.477C385.601 167.347 386.351 164.35 387.475 160.977C408.835 160.977 437.689 160.977 432.818 160.977C442.935 160.227 463.171 156.105 475.163 134.371H401.34C400.591 134.371 399.841 134.371 399.841 134.371C399.841 134.371 396.468 133.996 391.597 134.746C391.597 132.497 391.597 130.249 391.597 128C391.597 126.127 391.597 124.253 391.597 122.379C401.715 122.005 412.957 122.005 425.323 122.005C448.931 122.005 469.167 122.379 471.04 122.379C471.415 122.379 472.165 122.379 472.914 122.379C480.409 122.379 505.891 120.506 523.503 93.8996L528 87.1543H391.222ZM338.01 39.1884C338.759 39.5631 338.759 40.3126 338.759 41.0621C338.759 41.0621 339.134 41.0621 339.134 40.6873C339.134 40.6873 339.134 40.6873 339.509 40.6873L342.132 42.9357C342.132 42.9357 341.757 43.3105 341.383 43.3105C341.008 43.6852 340.633 43.6852 339.884 44.0599C339.134 44.4347 338.759 44.8094 338.01 45.1842C337.26 45.5589 336.886 45.9336 336.136 46.3084C335.762 46.6831 335.012 47.0578 334.637 47.0578C334.263 47.4326 333.888 47.4326 333.888 47.4326C333.513 47.8073 333.513 47.8073 333.513 48.182C333.513 48.5568 333.888 48.5568 333.888 48.9315C334.263 48.9315 334.637 49.3062 335.012 49.3062C335.387 49.3062 336.136 49.3062 336.511 48.9315V50.0557C336.136 50.4304 335.387 50.4304 335.012 50.4304C334.637 50.4304 333.888 50.4304 333.513 50.4304C333.138 50.4304 332.389 50.4304 332.014 50.0557C331.639 50.0557 330.89 49.681 330.515 49.3062C330.141 48.9315 329.766 48.5568 329.391 48.182C329.391 47.8073 329.391 47.0578 329.391 46.6831C328.642 46.6831 327.892 46.6831 327.143 46.3084C326.393 46.3084 326.018 45.9336 325.644 45.5589C325.269 45.1842 324.894 44.8094 324.52 44.0599C324.52 43.6852 324.52 42.9358 324.52 42.561C324.894 42.1863 325.269 41.4368 325.644 41.0621C326.018 40.6873 326.768 39.9379 327.517 39.5631C329.391 38.4389 331.265 38.0642 333.138 38.0642C335.387 37.6895 336.886 38.4389 338.01 39.1884ZM323.395 30.9443C323.395 30.5695 323.77 29.8201 324.52 29.4453C325.269 29.0706 326.018 28.6959 326.393 28.6959C327.143 28.6959 327.517 28.6959 328.267 29.0706C328.642 29.4453 329.016 29.8201 329.016 30.1948C329.016 30.5695 328.642 31.319 327.892 31.6937C327.517 32.0685 327.143 32.0685 326.768 32.4432L329.016 33.9421C329.016 33.9421 328.642 34.3169 328.267 34.3169C327.892 34.6916 327.517 34.6916 327.143 35.0663C326.768 35.4411 326.393 35.8158 325.644 36.1905C325.269 36.5653 324.52 36.94 324.145 37.3147C323.77 37.6895 323.395 38.0642 323.021 38.0642C322.646 38.4389 322.646 38.4389 322.271 38.4389C321.896 38.8137 321.896 38.8137 321.896 39.1884C321.896 39.5631 322.271 39.5631 322.646 39.9379C323.021 39.9379 323.395 40.3126 323.77 39.9379C324.145 39.9379 324.894 39.5631 325.269 39.5631V40.6873C324.894 41.0621 324.52 41.0621 323.77 41.4368C323.395 41.4368 322.646 41.8115 322.271 41.8115C321.896 41.8115 321.147 41.8115 320.772 41.8115C320.397 41.8115 319.648 41.4368 319.273 41.0621C318.899 40.6873 318.524 40.3126 318.149 40.3126C317.774 40.3126 317.774 39.5631 317.774 39.1884C317.774 38.8137 317.774 38.4389 318.149 38.0642C318.524 37.6895 318.899 37.3147 319.273 36.94L324.894 33.1927C324.52 33.1927 324.145 33.1927 323.77 32.8179C323.395 31.6937 323.021 31.319 323.395 30.9443ZM309.155 26.0727C309.53 25.698 309.905 25.3232 309.905 25.3232C310.28 24.9485 310.28 24.5738 310.28 24.5738C310.28 24.1991 309.905 24.1991 309.53 23.8243H309.155L310.28 23.0749H310.654H311.029C311.029 23.0749 311.404 23.0748 311.779 23.4496C312.903 23.8243 313.278 24.5738 313.278 25.3232C313.278 26.0727 312.528 26.8222 311.404 27.9464C311.029 28.3211 310.654 28.3211 310.28 28.6959C309.905 29.0706 309.53 29.4453 308.781 29.8201C308.406 30.1948 307.657 30.5695 307.282 31.319C306.907 31.6937 306.907 31.6937 306.907 32.0685C306.907 32.4432 307.282 32.4432 307.282 32.4432C307.657 32.4432 307.656 32.4432 308.406 32.4432C308.781 32.4432 309.155 32.4432 309.53 32.0685L316.275 26.0727L319.273 27.5717L312.153 33.5674C311.779 33.9421 311.779 33.9421 311.779 34.3169C311.779 34.6916 312.153 34.6916 312.528 34.6916C312.903 34.6916 313.278 34.6916 313.652 34.6916C314.027 34.6916 314.776 34.3169 315.151 33.9421V35.0663C314.776 35.4411 314.402 35.8158 313.652 35.8158C313.278 36.1905 312.528 36.1905 312.153 36.1905C311.779 36.1905 311.029 36.1905 310.654 36.1905C310.28 36.1905 309.53 35.8158 309.155 35.8158C308.406 35.4411 308.031 35.0663 308.031 34.6916C307.657 34.3169 307.657 33.9421 308.031 33.1927C307.282 33.5674 306.532 33.5674 305.783 33.5674C305.033 33.5674 304.284 33.5674 303.909 33.1927C303.534 32.8179 303.16 32.8179 302.785 32.4432C302.41 32.0685 302.41 31.6937 302.41 31.319C302.41 30.9443 302.41 30.5695 302.785 30.1948C303.16 29.8201 303.534 29.4453 303.909 28.6959C304.284 28.6959 304.284 28.3211 304.659 27.9464C305.033 27.5717 305.408 27.1969 305.783 26.8222C308.406 26.8222 308.781 26.4475 309.155 26.0727ZM301.661 18.9528C302.41 19.3275 302.785 19.7022 303.16 20.4517L303.534 20.077C303.534 20.077 303.534 20.077 303.534 19.7022L306.907 20.8265C306.907 20.8265 306.532 21.2012 306.158 21.5759C305.783 21.9506 305.408 22.3254 305.033 22.7001C304.659 23.0749 304.284 23.8243 303.534 24.1991C303.16 24.5738 302.785 25.3233 302.41 25.698C302.036 26.0727 301.661 26.4475 301.286 26.8222C300.911 27.1969 300.911 27.5717 300.537 27.5717C300.162 27.9464 300.162 28.3211 300.162 28.3211C300.162 28.6959 300.537 28.6959 300.911 28.6959C301.286 28.6959 301.661 28.6959 302.035 28.6959C302.41 28.6959 303.16 28.3211 303.534 27.9464L303.909 29.0706C303.534 29.4453 303.16 29.8201 302.785 30.1948C302.41 30.5695 301.661 30.5695 301.286 30.9443C300.911 30.9443 300.162 31.319 299.787 31.319C299.412 31.319 298.663 31.319 298.288 30.9443C297.539 30.5695 297.164 30.5695 296.789 30.1948C296.415 29.8201 296.414 29.4453 296.414 28.6959C295.665 29.0706 294.916 29.0706 294.166 29.0706C293.417 29.0706 293.042 29.0706 292.292 29.0706C291.543 28.6959 291.168 28.6959 290.793 27.9464C290.419 27.5717 290.419 26.8222 290.419 26.4475C290.419 25.698 290.419 25.3233 290.793 24.5738C291.168 23.8243 291.543 23.0749 292.292 22.3254C293.791 20.4517 295.29 19.3275 296.789 18.9528C299.038 18.5781 300.537 18.5781 301.661 18.9528ZM296.04 225.806C295.665 226.181 295.29 226.555 294.916 226.93C294.541 226.93 293.791 226.93 293.417 226.93C293.042 226.555 292.667 226.181 292.292 225.806C292.292 225.431 292.292 224.682 292.667 224.307C293.042 223.932 293.417 223.557 293.791 223.183C294.166 223.183 294.916 223.183 295.29 223.557C295.665 223.932 296.04 224.307 296.414 224.682C296.414 225.056 296.415 225.431 296.04 225.806ZM282.924 24.5738C282.924 24.1991 283.299 23.4496 283.674 23.0749L289.295 14.8307L287.421 14.456L288.545 12.957L290.044 13.3318L290.793 12.5823H294.541L293.417 14.0812L296.04 14.8307L294.916 16.3296L292.292 15.9549L286.671 24.5738C286.297 24.9485 286.297 25.3232 286.671 25.3232C286.671 25.698 287.046 25.698 287.421 25.698C287.796 25.698 288.17 25.698 288.545 25.3232C288.92 24.9485 289.295 24.5738 289.669 24.1991L290.044 25.3232C289.669 25.698 289.295 26.0727 288.92 26.4475C288.545 26.8222 288.17 27.1969 287.421 27.1969C287.046 27.5717 286.297 27.5717 285.922 27.5717C285.547 27.5717 284.798 27.5717 284.423 27.5717C284.048 27.5717 283.674 27.1969 283.299 27.1969C282.924 26.8222 282.924 26.8222 282.549 26.4475C282.549 25.3233 282.549 24.9485 282.924 24.5738ZM250.697 13.7065C251.072 12.957 251.072 12.2076 251.821 11.8328C252.571 11.4581 252.945 11.0834 253.32 11.0834C254.07 11.0834 254.444 11.0834 254.444 11.8328C254.819 12.2076 254.819 12.957 254.444 13.7065C254.444 14.0812 254.07 14.8307 254.07 14.8307L256.693 14.456C256.693 14.8307 256.693 14.8307 256.318 15.2054C256.318 15.5802 255.943 15.9549 255.943 16.7044C255.943 17.0791 255.569 17.8286 255.569 18.2033C255.569 18.9528 255.194 19.3275 255.194 19.7022C255.194 20.077 254.819 20.8265 254.819 21.2012C254.819 21.5759 254.444 21.9507 254.444 21.9507C254.444 22.3254 254.444 22.7001 254.444 22.7001C254.819 22.7001 254.819 22.7001 255.194 22.7001C255.568 22.7001 255.943 22.3254 256.318 21.9507C256.693 21.5759 257.067 21.2012 257.067 20.4517L257.817 21.2012C257.817 21.5759 257.442 22.3254 257.067 22.7001C256.693 23.0749 256.318 23.4496 255.943 23.8243C255.569 24.1991 255.194 24.5738 254.444 24.5738C254.07 24.9485 253.32 24.9485 252.945 24.9485C252.571 24.9485 252.196 24.9485 251.446 24.9485C251.072 24.9485 250.697 24.5738 250.697 24.1991C250.322 23.8243 250.322 23.4496 250.322 23.0749C250.322 22.7001 250.322 21.9507 250.697 21.2012L252.571 14.8307C252.196 15.2054 251.821 15.2054 251.446 15.2054C250.697 15.2054 250.322 15.2054 250.322 14.456C250.697 14.8307 250.697 14.456 250.697 13.7065ZM222.217 25.3232C222.592 24.199 223.341 23.4496 224.091 23.0749C224.091 22.7001 223.716 22.7001 223.716 22.3254C223.716 21.9506 223.716 21.9506 223.341 21.5759C223.341 20.8264 222.967 20.077 223.341 19.3275C223.341 18.578 223.716 18.2033 224.091 17.4538C224.466 17.0791 224.84 16.3296 225.215 15.9549C225.59 15.5802 226.339 15.2054 226.714 15.2054C227.089 14.8307 227.838 14.8307 228.588 14.8307C229.337 14.8307 229.712 15.2054 230.461 15.2054C231.211 15.5802 231.586 15.9549 231.96 16.7044C232.335 17.4538 232.335 18.2033 232.335 18.9528C232.335 19.7023 231.96 20.4517 231.586 21.2012C231.211 21.9507 230.461 22.3254 229.337 22.7001C231.211 23.8243 232.71 24.5738 233.834 24.9485C235.333 25.3233 236.457 24.9485 237.207 24.5738C237.207 24.1991 237.207 23.8243 237.207 23.8243C237.207 23.4496 237.207 23.0749 236.832 23.0749C236.457 23.4496 236.082 23.8243 235.708 23.8243C235.333 23.8243 234.583 23.8243 234.209 23.8243C233.834 23.4496 233.459 23.0749 233.084 22.7001C233.084 22.3254 233.084 21.5759 233.084 21.2012C233.459 20.8265 233.834 20.4517 234.209 20.077C234.583 20.077 235.333 20.077 235.708 20.077C236.082 20.4517 236.457 20.8265 236.832 21.2012C237.207 21.5759 237.581 21.9507 237.581 22.7001C237.956 23.0749 237.956 23.8243 237.956 24.1991C238.331 23.8243 238.705 23.0749 239.08 22.3254C239.455 21.5759 239.455 20.8265 239.455 20.077L240.579 20.4517C240.579 20.8264 240.579 21.5759 240.579 21.9507C240.579 22.3254 240.204 23.0749 240.204 23.8243C239.83 24.5738 239.83 24.9485 239.455 25.698C239.08 26.4475 238.705 26.8222 238.331 27.1969C238.331 27.9464 237.956 28.6959 237.956 29.4453C237.581 30.1948 237.207 30.9443 236.832 31.6937C236.457 32.4432 235.708 32.8179 234.958 33.5674C234.209 34.3169 233.084 34.6916 231.96 35.0663C230.461 35.4411 228.962 35.8158 227.838 35.4411C226.714 35.4411 225.59 35.0663 224.84 34.3169C224.091 33.5674 223.341 32.8179 222.967 32.0685C222.592 31.319 222.217 30.1948 222.217 29.0706C221.468 27.1969 221.842 26.0727 222.217 25.3232ZM237.956 226.181C237.956 226.555 237.581 226.93 236.832 227.305C236.457 227.68 235.708 227.68 235.333 227.305C234.958 227.305 234.583 226.93 234.209 226.181C233.834 225.806 233.834 225.056 234.209 224.682C234.209 224.307 234.583 223.932 235.333 223.557C235.708 223.183 236.457 223.183 236.832 223.557C237.207 223.557 237.581 223.932 237.956 224.682C237.956 225.056 237.956 225.431 237.956 226.181ZM216.221 217.187C216.596 216.812 216.971 216.438 217.346 216.063C217.72 216.063 218.47 216.063 218.845 216.063C219.219 216.438 219.594 216.812 219.969 217.187C219.969 217.562 219.969 218.311 219.969 218.686C219.594 219.061 219.219 219.435 218.845 219.81C218.47 219.81 217.72 219.81 217.346 219.81C216.971 219.435 216.596 219.061 216.221 218.686C215.847 218.311 216.221 217.562 216.221 217.187ZM203.855 27.9464C204.23 27.1969 204.605 26.8222 204.979 26.4475C205.354 26.0727 206.104 26.0727 206.478 26.4475C206.853 26.8222 207.228 27.1969 207.228 27.9464C207.228 28.3211 207.228 29.0706 207.228 29.4453L209.476 27.9464C209.476 28.3211 209.476 28.3211 209.476 28.6959C209.476 29.0706 209.476 29.4453 209.851 30.1948C209.851 30.5695 209.851 31.319 210.226 32.0685C210.226 32.8179 210.226 33.1927 210.6 33.9421C210.6 34.3169 210.6 35.0663 210.975 35.4411C210.975 35.8158 210.975 36.1905 210.975 36.1905C210.975 36.5653 211.35 36.94 211.35 36.94C211.725 36.94 211.725 36.94 212.099 36.5653C212.474 36.1905 212.474 35.8158 212.849 35.4411C213.224 35.0663 213.224 34.3169 213.224 33.9421L213.973 34.3169C213.973 34.6916 213.973 35.4411 213.973 35.8158C213.973 36.1905 213.598 36.94 213.598 37.3147C213.224 37.6895 213.224 38.4389 212.849 38.8137C212.474 39.1884 212.099 39.5631 211.725 39.9379C211.35 40.3126 210.975 40.3126 210.6 40.3126C210.226 40.3126 209.851 40.3126 209.476 39.9379C209.102 39.5631 208.727 39.5631 208.727 38.8137C208.352 38.4389 208.352 37.6895 208.352 36.94L207.228 30.1948C206.853 30.5695 206.853 30.9443 206.478 30.9443C206.104 31.319 205.354 31.319 204.979 30.9443C204.605 30.5695 204.23 30.1948 204.23 29.4453C203.855 29.0706 203.855 28.6959 203.855 27.9464ZM193.363 39.1884C193.737 37.6895 194.487 36.1905 195.611 35.4411C196.361 35.0663 197.11 34.6916 197.485 35.0663V34.6916V34.3169L200.108 32.0685C200.108 32.0685 200.108 32.4432 200.483 33.1927C200.483 33.5674 200.857 34.3169 200.857 34.6916C200.857 35.4411 201.232 35.8158 201.232 36.5653C201.232 37.3147 201.607 38.0642 201.607 38.4389C201.607 39.1884 201.982 39.5631 201.982 39.9379C201.982 40.3126 202.356 40.6873 202.356 40.6873C202.356 41.0621 202.731 41.4368 202.731 41.4368C203.106 41.4368 203.106 41.4368 203.48 41.0621C203.855 40.6873 203.855 40.3126 204.23 39.9379C204.23 39.5631 204.23 38.8137 204.23 38.4389L205.354 38.8137C205.354 39.1884 205.729 39.9379 205.354 40.3126C205.354 40.6873 205.354 41.4368 204.979 41.8115C204.979 42.1863 204.605 42.9358 204.23 43.3105C203.855 43.6852 203.481 44.06 203.106 44.4347C202.731 44.8094 201.982 45.1842 201.607 45.1842C201.232 45.1842 200.857 45.1842 200.108 44.8094C200.108 45.5589 199.733 46.3083 199.358 46.6831C198.984 47.4326 198.609 47.8073 198.234 48.182C197.485 48.5568 197.11 48.9315 196.735 48.9315C196.361 48.9315 195.611 48.9315 195.236 48.5568C194.862 48.182 194.487 47.8073 193.737 47.0578C193.363 46.3084 192.988 45.5589 192.988 44.8094C192.988 42.561 192.988 40.6873 193.363 39.1884ZM182.87 54.1778C182.495 53.4283 182.121 52.3041 181.746 51.5546C181.371 50.8052 180.996 50.0557 180.622 49.3062C180.247 48.5568 180.247 48.182 179.872 47.8073C179.872 47.4325 179.498 47.0578 179.498 47.0578C179.498 46.6831 179.123 46.3084 178.748 46.3084C178.373 46.3084 177.999 46.3083 177.999 46.6831L177.624 47.0578L177.249 45.5589L177.624 45.1842L177.999 44.8094L178.373 44.4347C179.123 43.6852 179.872 43.3105 180.622 43.6852C181.371 44.06 181.746 44.8094 182.495 46.3084L183.245 48.182C183.245 47.8073 183.62 47.0578 183.62 46.6831C183.994 46.3083 183.994 45.9336 184.369 45.5589C184.744 45.1842 185.493 44.8094 185.868 44.8094C186.243 44.8094 186.992 44.8094 187.367 45.1842C187.742 45.5589 188.491 45.9336 188.866 46.3084C189.241 47.0578 189.615 47.4326 189.99 48.5568C190.74 50.8052 191.114 52.6788 191.114 54.1778C190.74 55.6767 190.365 57.1756 189.241 58.2998C188.866 58.6746 188.116 59.0493 187.367 59.0493C187.367 59.424 187.367 59.424 187.742 59.424L185.493 61.6724C184.744 58.2998 183.62 56.0514 182.87 54.1778ZM192.988 219.061C192.238 219.061 191.114 219.061 190.365 218.686C189.615 218.311 188.866 217.936 188.116 217.562C187.367 217.187 186.992 216.438 186.992 216.063C186.617 215.313 186.617 214.939 186.992 214.189C186.992 213.44 187.367 213.065 188.116 212.315C188.491 211.566 189.241 211.191 190.365 210.817C192.238 209.692 194.112 209.318 195.986 209.318C197.859 209.318 199.358 209.692 200.483 210.817C201.232 211.191 201.607 211.941 201.607 212.315C201.982 213.065 201.982 213.44 201.607 214.189C201.607 214.939 201.232 215.313 200.483 216.063C200.108 216.812 199.358 217.187 198.609 217.562C197.485 217.936 196.735 218.686 195.611 218.686C194.862 219.061 194.112 219.061 192.988 219.061ZM207.603 230.677C206.853 230.677 206.478 230.303 206.104 230.303C205.354 229.928 204.605 229.178 204.605 228.429C204.605 227.68 204.979 226.93 205.729 226.555C205.354 226.93 204.979 226.93 204.605 226.93C203.855 226.93 203.48 227.305 202.731 227.305C201.982 227.305 201.607 227.305 200.857 227.305C200.483 227.305 199.733 226.93 199.358 226.555C198.984 226.181 198.609 225.806 198.234 225.431C197.859 225.056 197.859 224.682 197.859 224.307C197.859 223.932 198.234 223.557 198.234 223.183C198.609 222.808 198.984 222.433 199.733 222.059L205.354 217.936C204.979 217.936 204.605 217.562 204.23 217.562C203.855 217.187 203.48 216.812 203.48 216.438C203.48 216.063 203.855 215.313 204.605 214.939C205.354 214.564 206.104 214.189 206.853 214.189C207.603 214.189 207.977 214.189 208.727 214.564C209.102 214.939 209.476 215.313 209.476 215.688C209.476 216.063 209.102 216.812 208.352 217.187C207.977 217.562 207.603 217.936 206.853 217.936L209.102 219.435C209.102 219.435 208.727 219.81 208.352 220.185C207.977 220.56 207.603 220.56 207.228 220.934C206.853 221.309 206.104 221.684 205.729 222.059C205.354 222.433 204.605 222.808 204.23 223.183C203.855 223.557 203.481 223.932 203.106 223.932C202.731 224.307 202.356 224.307 202.356 224.307C201.982 224.682 201.982 224.682 201.982 225.056C201.982 225.431 202.356 225.431 202.731 225.806C203.106 225.806 203.48 226.181 204.23 225.806C204.605 225.806 205.354 225.431 205.729 225.431V226.555L206.104 226.181C206.478 226.181 206.853 225.806 207.228 225.431C207.603 225.056 207.977 224.682 208.727 224.307C209.102 223.932 209.851 223.557 210.226 223.183C210.6 222.808 210.975 222.433 211.35 222.433C211.725 222.059 211.725 221.684 212.099 221.684C212.099 221.309 211.725 220.934 211.35 220.934H210.975L212.099 220.185H212.474C212.474 220.185 212.849 220.185 212.849 220.56C213.224 220.56 213.224 220.56 213.598 220.934C214.723 221.684 215.097 222.059 215.097 222.808C215.097 223.557 214.348 224.307 213.224 225.431C212.849 225.806 212.474 225.806 212.099 226.181C211.725 226.555 210.975 226.93 210.6 227.305C210.226 227.68 209.476 228.054 208.727 228.804C208.352 229.178 208.352 229.553 208.352 229.553C208.352 229.928 208.727 229.928 209.102 230.303C209.476 230.303 209.851 230.303 210.6 230.303C210.975 230.303 211.725 229.928 212.099 229.553V230.677C211.725 231.052 210.975 231.427 210.6 231.427C210.226 231.802 209.476 231.802 209.102 231.802C208.727 230.677 208.352 230.677 207.603 230.677ZM220.718 235.924C219.219 237.423 217.346 238.547 215.847 238.922C213.973 239.296 212.474 239.296 210.975 238.547C210.226 238.172 209.851 237.797 209.476 237.423C209.102 237.048 209.102 236.298 209.102 235.924C209.102 235.549 209.476 234.799 209.851 234.425C210.226 234.05 210.6 233.301 210.975 232.926C211.35 232.551 212.099 232.176 212.474 232.176C212.474 231.427 212.474 230.677 212.849 229.928C213.224 229.178 213.973 228.054 214.723 227.305C216.596 225.806 218.095 224.682 219.969 224.307C221.842 223.932 223.341 223.932 224.466 224.682C225.215 225.056 225.59 225.431 225.965 226.181L226.339 225.806L229.712 227.305C229.337 227.68 228.962 228.054 228.588 228.429C228.213 228.804 227.838 229.178 227.089 229.928C226.714 230.303 225.965 231.052 225.59 231.427C225.215 231.802 224.466 232.551 224.091 232.926C222.967 233.675 221.842 234.799 220.718 235.924ZM230.087 239.296C229.712 239.296 228.962 239.671 228.588 239.671C227.838 239.671 227.463 239.671 227.089 239.296C225.965 238.922 225.59 238.547 225.215 237.797C225.215 237.048 225.59 235.924 226.339 234.799C226.339 234.425 226.714 234.425 227.089 233.675C227.463 233.301 227.838 232.926 228.213 232.176C228.588 231.802 228.962 231.052 229.337 230.677C229.712 230.303 230.087 229.928 230.087 229.553C230.461 229.178 230.461 228.804 230.461 228.429C230.461 228.054 230.087 228.054 229.712 227.68H229.337L230.461 226.555C230.461 226.555 230.836 226.555 231.211 226.555C231.211 226.555 231.586 226.555 231.96 226.555C232.335 226.555 232.335 226.555 232.71 226.555C233.834 226.93 234.583 227.68 234.583 228.429C234.583 229.178 234.209 230.303 233.084 231.427C232.71 231.802 232.71 232.176 232.335 232.551C231.96 232.926 231.586 233.301 231.211 234.05C230.836 234.425 230.461 235.174 229.712 235.549C229.337 235.924 229.337 236.298 229.337 236.298C229.337 236.673 229.712 236.673 230.087 236.673C230.461 236.673 230.836 236.673 231.586 236.298C231.96 236.298 232.71 235.924 233.084 235.174L233.459 236.298C233.084 236.673 232.71 237.048 232.335 237.423C230.836 238.922 230.461 238.922 230.087 239.296ZM242.453 240.795C242.453 241.17 242.828 241.17 243.202 241.17C243.577 241.17 243.952 241.17 244.701 240.795C245.076 240.421 245.825 240.046 246.2 239.671L246.575 240.795C246.2 241.17 245.825 241.545 245.451 241.919C245.076 242.294 244.326 242.669 243.952 242.669C243.577 243.044 242.828 243.044 242.453 243.044C241.703 243.044 241.329 243.044 240.954 243.044C240.579 243.044 240.204 242.669 239.83 242.669C239.455 242.294 239.455 241.919 239.08 241.545C239.08 241.17 239.08 240.795 239.08 240.046C239.08 239.671 239.455 238.922 239.83 238.547L243.202 234.05C243.577 233.675 243.577 233.675 243.202 233.301C243.202 232.926 242.828 232.926 242.828 232.926C242.453 232.926 242.078 232.926 241.703 232.926C241.329 232.926 240.954 233.301 240.579 233.301V233.675V234.05C240.204 234.425 240.204 234.799 239.83 235.174C239.455 235.549 239.08 236.298 238.705 236.673C238.331 237.048 237.956 237.797 237.581 238.172C237.207 238.547 237.207 238.922 236.832 238.922C236.457 239.296 236.457 239.671 236.457 240.046C236.457 240.421 236.832 240.421 237.207 240.795H237.581L236.457 241.919C236.457 241.919 236.082 241.919 235.708 241.919C235.333 241.919 234.958 241.919 234.583 241.919C233.459 241.545 232.71 241.17 232.71 240.421C232.71 239.671 233.084 238.547 233.834 237.423L237.207 232.551C237.581 232.176 237.581 231.802 237.581 231.427C237.581 231.052 237.207 231.052 236.832 230.677H236.457L237.581 229.553C237.581 229.553 237.956 229.553 238.331 229.553C238.331 229.553 238.705 229.553 239.08 229.553C239.455 229.553 239.455 229.553 239.83 229.553C241.329 229.928 242.078 230.677 241.703 231.427C242.453 231.052 242.828 230.677 243.577 230.677C244.326 230.677 245.076 230.677 245.451 230.677C246.575 231.052 247.324 231.427 247.324 232.176C247.699 232.926 247.324 234.05 246.575 235.174C246.575 235.549 246.2 235.924 245.825 236.298C245.451 236.673 245.076 237.048 244.701 237.797C244.326 238.172 243.952 238.547 243.952 238.922C243.577 239.296 243.577 239.671 243.202 239.671C242.078 240.046 242.078 240.421 242.453 240.795ZM258.941 244.543C258.566 244.917 257.817 244.917 257.442 245.292C257.067 245.292 256.318 245.667 255.943 245.292C255.194 245.292 254.819 244.917 254.444 244.543C254.07 244.168 253.695 243.793 253.695 243.044C252.945 243.418 252.196 243.793 251.821 244.168C251.072 244.543 250.697 244.543 249.948 244.543C249.198 244.543 248.449 244.168 248.074 243.793C247.699 243.418 247.324 243.044 247.324 242.294C247.324 241.545 247.324 241.17 247.324 240.046C247.324 239.296 247.699 238.547 248.074 237.423C249.198 235.174 250.697 233.675 251.821 232.926C253.32 232.176 254.819 231.802 256.318 231.802C257.067 231.802 257.817 232.176 258.192 232.926V232.551V232.176L261.939 232.551C261.939 232.926 261.564 232.926 261.564 233.675C261.19 234.05 261.19 234.799 260.815 235.174C260.44 235.924 260.065 236.298 259.691 237.048C259.316 237.797 258.941 238.172 258.566 238.922C258.192 239.671 257.817 240.046 257.817 240.421C257.442 240.795 257.442 241.17 257.442 241.17C257.067 241.545 257.067 241.919 257.442 241.919C257.817 242.294 257.817 242.294 258.192 242.294C258.566 242.294 258.941 241.919 259.316 241.919C259.691 241.545 260.065 241.17 260.44 240.795L260.815 241.919C260.44 242.294 260.065 243.044 259.691 243.418C260.065 243.793 259.691 244.168 258.941 244.543ZM269.434 231.427C269.434 231.427 269.434 231.802 269.059 232.176C269.059 232.551 268.684 232.926 268.684 233.675C268.309 234.05 268.309 234.799 267.935 235.174C267.56 235.924 267.56 236.298 267.185 237.048C266.811 238.547 266.061 240.046 265.312 241.545C265.312 241.919 265.312 242.294 265.312 242.294C265.686 242.294 265.686 242.669 266.061 242.294C266.436 242.294 266.811 241.919 267.185 241.545C267.56 241.17 267.935 240.795 268.309 240.046L269.059 240.795C268.684 241.17 268.684 241.919 268.309 242.294C267.935 242.669 267.56 243.044 267.185 243.418C266.811 243.793 266.061 244.168 265.686 244.168C265.312 244.543 264.562 244.543 264.187 244.543C263.813 244.543 263.063 244.543 262.688 244.168C262.314 244.168 261.939 243.793 261.939 243.418C261.564 243.044 261.564 242.669 261.564 242.294C261.564 241.919 261.564 241.17 261.939 240.421C261.939 240.421 262.314 240.046 262.314 239.296C262.688 238.922 262.688 238.172 263.063 237.423C263.438 236.673 263.813 235.924 264.187 235.174C264.562 234.425 264.937 233.675 265.312 232.926C265.686 232.176 266.061 231.427 266.061 231.052C266.436 230.677 266.436 230.303 266.436 229.928C266.811 229.553 266.811 229.178 266.436 228.804C266.436 228.429 266.061 228.429 265.312 228.429H264.937L265.686 226.93H266.061H266.436C266.811 226.93 266.811 226.93 267.185 226.93C268.309 226.93 269.059 227.305 269.434 228.054C270.183 229.178 269.808 230.303 269.434 231.427ZM267.935 24.1991C266.811 24.9485 265.312 24.9485 263.438 24.9485C262.688 24.9485 261.939 24.9485 261.19 24.5738C260.44 24.1991 260.065 23.8243 259.691 23.0749C259.316 22.3254 259.316 21.9507 259.316 21.2012C259.316 20.4517 259.316 19.7023 259.691 18.9528C260.44 17.0791 261.564 15.5802 262.688 14.456C264.187 13.3318 265.312 12.957 267.185 12.957C267.935 12.957 268.684 13.3318 269.059 13.7065C269.434 14.0812 269.808 14.8307 269.808 15.2054C269.808 15.9549 269.808 16.3296 269.434 17.0791C269.059 17.8286 268.684 18.5781 267.935 18.9528C267.185 19.7023 266.061 20.077 264.562 20.077H262.688C262.314 20.8265 262.688 21.9506 263.063 22.3254C263.438 23.0749 264.187 23.0749 265.312 23.0749C265.686 23.0749 266.061 23.0749 266.811 22.7001C267.185 22.7001 267.56 22.3254 268.309 21.9507C268.684 21.5759 269.059 21.5759 269.434 21.2012C269.808 20.8265 270.183 20.4517 270.183 20.077L270.558 20.8265C269.808 22.7001 269.059 23.4496 267.935 24.1991ZM273.556 25.3232C272.806 25.3232 272.432 24.9485 272.057 24.5738C271.682 24.1991 271.307 23.8243 271.307 23.4496C271.307 23.0748 271.307 22.3254 271.307 21.9507C271.307 21.2012 271.682 20.8264 272.057 20.4517C272.432 20.077 272.806 19.7022 273.181 19.3275C273.556 18.9528 273.93 18.9528 273.93 18.578C274.305 18.578 274.305 18.2033 274.68 18.2033C275.055 18.2033 275.055 18.2033 275.429 18.2033C276.179 18.2033 276.179 18.5781 276.554 18.9528C276.554 19.3275 276.554 20.077 276.179 20.4517C275.804 21.2012 275.429 21.5759 274.68 21.9507C274.305 22.3254 273.556 22.3254 272.806 22.3254H272.432C272.432 22.7001 272.432 23.0748 272.432 23.4496C272.432 23.8243 272.806 23.8243 273.181 23.8243C273.556 23.8243 273.93 23.8243 274.305 23.8243C274.68 23.8243 275.055 23.4496 275.429 23.0749C275.804 22.7001 276.179 22.3254 276.554 21.9507C276.928 21.5759 277.303 20.8264 277.303 20.4517C278.053 18.9528 278.427 17.8286 278.053 17.4538C277.678 16.7044 276.928 16.7044 275.804 16.7044C275.429 16.7044 275.429 16.7044 275.055 16.7044C274.68 16.7044 274.68 16.3296 274.68 15.9549C274.68 15.5802 274.68 15.5802 274.68 15.2054C274.68 14.8307 274.68 14.456 275.055 14.0812C275.429 13.3318 275.804 12.957 276.554 12.5823C276.928 12.2076 277.678 12.2076 278.427 12.2076C279.177 12.2076 279.551 12.5823 279.551 12.957C279.551 13.3318 279.552 14.0812 279.177 14.8307C279.177 14.8307 278.802 15.2054 278.802 15.5802C278.427 15.9549 278.427 15.9549 278.053 16.3296C278.802 16.3296 279.177 16.3296 279.926 16.7044C280.301 17.0791 281.05 17.0791 281.05 17.8286C281.425 18.2033 281.425 18.9528 281.425 19.3275C281.425 20.077 281.425 20.8264 281.05 21.5759C280.676 22.7001 279.926 23.4496 279.551 24.1991C278.802 24.9485 278.427 25.3233 277.678 25.698C276.928 26.0727 276.179 26.4475 275.429 26.4475C275.055 25.698 274.305 25.698 273.556 25.3232ZM290.419 240.421C290.044 240.795 289.669 241.545 289.295 241.919C288.92 242.294 288.545 242.669 287.796 243.044C287.421 243.418 286.671 243.418 286.297 243.418C285.547 243.418 285.173 243.418 284.798 243.418C284.423 243.044 284.048 242.669 283.674 242.294C283.299 243.044 282.549 243.418 281.8 243.793C281.05 244.168 280.676 244.543 279.926 244.543C279.177 244.543 278.427 244.543 278.053 244.168C277.678 243.793 277.303 243.418 276.928 243.044C276.554 242.669 276.554 241.919 276.554 241.17C276.554 240.42 276.554 239.671 276.928 238.547C277.678 236.298 278.427 234.425 279.551 233.301C280.676 232.176 282.175 231.427 283.674 231.052C284.423 231.052 285.172 231.052 285.547 231.802L286.297 228.804C286.297 228.429 286.297 228.054 286.297 227.68C286.297 227.305 285.922 227.305 285.172 227.305H284.798L285.172 225.806C285.172 225.806 285.547 225.806 285.547 225.431C285.547 225.431 285.922 225.431 285.922 225.056C286.297 225.056 286.297 225.056 286.671 225.056C287.796 224.682 288.545 225.056 289.295 225.806C289.669 226.555 289.669 227.68 289.295 229.178L287.046 240.046C287.046 240.421 287.046 240.795 287.421 240.795C287.796 240.795 287.796 240.795 288.17 240.795C288.545 240.795 288.92 240.421 289.295 240.046C289.669 239.671 290.044 239.296 290.044 238.547L290.793 239.296C290.793 239.671 290.419 240.046 290.419 240.421ZM297.913 238.547C297.539 238.922 297.539 239.671 297.164 240.046C296.789 240.421 296.415 240.795 296.04 241.17C295.665 241.545 294.916 241.919 294.541 241.919C293.417 242.294 292.667 241.919 292.292 241.545C291.543 240.795 291.543 240.046 291.543 238.547C291.543 238.172 291.543 237.797 291.543 237.423C291.543 236.673 291.543 236.298 291.918 235.549C291.918 234.799 291.918 234.425 292.292 233.675C292.292 233.301 292.292 232.551 292.292 232.551C292.292 232.176 292.292 231.802 291.918 231.427C291.543 231.052 291.543 231.052 290.793 231.427H290.419L290.793 229.928C290.793 229.928 291.168 229.928 291.168 229.553C291.168 229.553 291.543 229.553 291.543 229.178C291.918 229.178 291.918 229.178 292.292 228.804C293.417 228.429 294.166 228.429 294.916 229.178C295.29 229.928 295.665 230.677 295.29 232.551C295.29 232.926 295.29 233.301 295.29 234.05C295.29 234.799 295.29 235.174 294.916 235.924C294.916 236.673 294.916 237.423 294.541 238.172C294.541 238.547 294.541 238.922 294.916 238.922C295.29 238.922 295.29 238.922 295.665 238.922C296.04 238.922 296.415 238.547 296.789 238.172C297.164 237.797 297.164 237.048 297.539 236.673L298.288 237.423C298.288 237.423 297.913 237.797 297.913 238.547ZM311.029 233.675C310.654 234.05 310.654 234.799 310.28 235.174C309.905 235.549 309.53 235.924 309.155 236.298C308.781 236.673 308.406 237.048 307.656 237.048C307.282 237.048 306.532 237.423 306.158 237.423C305.783 237.423 305.408 237.423 305.033 237.048C304.659 236.673 304.659 236.298 304.284 235.924C304.284 235.549 303.909 234.799 303.909 234.05V228.429C303.909 228.054 303.909 227.68 303.534 227.68C303.534 227.68 303.16 227.68 302.785 227.68C302.41 227.68 302.41 228.054 302.035 228.054C301.661 228.429 301.661 228.804 301.286 229.178V229.553V229.928C301.286 230.303 301.286 230.677 301.286 231.427C301.286 232.176 301.286 232.551 301.286 233.301C301.286 234.05 301.286 234.425 301.286 235.174C301.286 235.549 301.286 235.924 301.286 236.298C301.286 236.673 301.286 237.048 301.661 237.423C302.036 237.797 302.035 237.797 302.785 237.423H303.16V238.922L302.785 239.296C302.41 239.296 302.036 239.671 301.661 239.671C300.537 240.046 299.787 240.046 299.038 239.671C298.663 239.296 298.288 238.172 298.288 236.673V230.677C298.288 230.303 298.288 229.928 297.913 229.553C297.539 229.178 297.164 229.178 296.789 229.553H296.414V228.054L296.789 227.68L297.164 227.305C297.164 227.305 297.539 227.305 297.913 226.93C299.412 226.555 300.162 226.555 300.911 227.68C301.286 226.93 301.661 226.555 302.035 226.181C302.41 225.806 303.16 225.431 303.534 225.056C304.659 224.682 305.408 224.682 306.158 225.431C306.907 225.806 306.907 226.93 306.907 228.429C306.907 228.804 306.907 229.178 306.907 229.553C306.907 229.928 306.907 230.677 306.907 231.052C306.907 231.802 306.907 232.176 306.907 232.551C306.907 232.926 306.907 233.301 306.907 233.675C306.907 234.05 306.907 234.425 307.282 234.425C307.657 234.425 308.031 234.425 308.031 234.425C308.406 234.05 308.781 234.05 309.155 233.301C309.53 232.926 309.53 232.176 309.53 231.802L310.28 232.551C311.029 232.551 311.029 233.301 311.029 233.675ZM323.395 227.305C323.395 228.054 323.021 228.429 322.646 228.804C322.271 229.178 321.896 229.928 321.522 230.303C321.147 230.677 320.772 231.052 320.397 231.427C320.023 231.802 319.648 231.802 318.899 231.802C318.524 231.802 318.149 231.802 317.774 231.427C317.4 231.052 317.025 231.052 317.025 230.303C316.65 229.928 316.65 229.178 316.65 228.429L316.275 222.808C316.275 222.433 316.275 222.059 315.901 222.059C315.526 222.059 315.526 222.059 315.151 222.059C314.776 222.059 314.776 222.433 314.402 222.808C314.027 223.183 314.027 223.557 313.652 223.932V224.307V224.682C313.652 225.056 313.652 225.431 313.652 226.181C313.652 226.93 313.652 227.305 313.652 228.054C313.652 228.804 313.652 229.178 313.652 229.928C313.652 230.303 313.652 230.677 313.652 231.052C313.652 231.427 314.027 231.802 314.027 232.176C314.402 232.176 314.776 232.176 315.151 232.176H315.526V233.675L315.151 234.05C314.776 234.425 314.402 234.425 314.027 234.799C312.903 235.549 312.153 235.549 311.404 235.174C310.654 234.799 310.28 233.675 310.28 232.176L309.53 226.181C309.53 225.806 309.53 225.431 309.155 225.056C308.781 225.056 308.406 225.056 308.031 225.056H307.656V223.557L308.031 223.183L308.406 222.808L308.781 222.433C309.905 221.684 311.029 221.684 311.779 222.808C312.153 222.059 312.528 221.684 312.903 220.934C313.278 220.56 313.652 219.81 314.402 219.81C315.526 219.435 316.275 219.435 317.025 219.81C317.774 220.185 318.149 221.309 318.149 222.808C318.149 223.183 318.149 223.557 318.149 223.932C318.149 224.307 318.149 225.056 318.149 225.431C318.149 226.181 318.149 226.555 318.149 226.93C318.149 227.305 318.149 227.68 318.149 228.054C318.149 228.429 318.524 228.804 318.524 228.804C318.899 228.804 319.273 228.804 319.273 228.429C319.648 228.054 320.023 227.68 320.023 227.305C320.397 226.93 320.397 226.181 320.397 225.431L321.147 225.806C323.77 226.181 323.77 226.555 323.395 227.305ZM333.513 222.059C332.764 223.183 331.639 224.682 330.141 225.431C329.391 225.806 328.642 226.181 327.892 226.181C327.143 226.181 326.393 226.181 326.018 225.806C325.269 225.431 324.894 225.056 324.52 224.307C324.145 223.557 323.77 222.808 323.395 222.059C323.021 219.81 323.021 217.936 323.395 216.063C323.77 214.189 324.894 213.065 326.393 211.941C327.143 211.566 327.892 211.191 328.642 211.191C329.391 211.191 329.766 211.566 330.141 212.315C330.515 212.69 330.89 213.44 330.89 214.189C330.89 214.939 330.89 215.688 330.89 216.812C330.515 217.936 329.766 219.061 328.642 219.81L326.768 220.934C327.143 222.059 327.517 222.433 328.267 222.808C329.016 223.183 329.766 222.808 330.515 222.433C330.89 222.059 331.265 221.684 331.639 221.309C332.014 220.934 332.389 220.56 332.389 220.185C332.764 219.81 332.764 219.435 332.764 218.686C332.764 218.311 332.764 217.562 332.764 217.187L333.888 217.562C334.263 219.435 333.888 220.56 333.513 222.059ZM341.383 215.688C341.383 216.063 341.008 216.812 340.633 217.187C340.258 217.562 339.884 217.936 339.509 218.311C339.134 218.686 338.759 218.686 338.385 219.061C338.01 219.061 337.635 219.061 337.261 219.061C336.886 219.061 336.511 218.686 336.136 218.311C335.762 217.936 335.387 217.187 335.387 216.812L333.138 210.067C333.138 210.442 332.764 210.817 332.389 211.191C332.014 211.566 331.639 211.566 330.89 211.566C330.515 211.191 330.141 210.817 329.766 210.067C329.391 209.318 329.391 208.568 329.391 207.819C329.391 207.069 329.766 206.694 330.141 206.32C330.515 205.945 331.265 205.945 331.639 205.945C332.014 206.32 332.389 206.694 332.764 207.444C333.138 207.819 333.138 208.568 333.138 208.943L335.387 207.069C335.387 207.444 335.387 207.444 335.762 207.819C335.762 208.193 336.136 208.568 336.136 209.318C336.136 209.692 336.511 210.442 336.511 211.191C336.886 211.941 336.886 212.315 336.886 213.065C336.886 213.44 337.261 214.189 337.261 214.564C337.261 214.939 337.635 215.313 337.635 215.313C337.635 215.688 338.01 216.063 338.385 216.063C338.759 216.063 338.759 216.063 339.134 215.688C339.509 215.313 339.509 214.939 339.509 214.564C339.509 214.189 339.509 213.44 339.509 212.69L340.633 213.065C340.633 213.44 341.008 214.189 341.008 214.939C341.383 214.564 341.383 214.939 341.383 215.688ZM341.757 59.7988C341.383 59.424 341.008 59.424 340.633 59.0493C340.258 58.6746 339.884 58.2998 339.884 57.9251C339.884 57.5504 339.884 57.1756 339.884 56.8009C339.884 56.4262 340.258 56.0514 340.633 55.6767C341.008 55.302 341.383 54.9272 342.132 54.9272L347.004 53.0536C347.378 53.0536 347.378 52.6788 347.378 52.6788C347.378 52.3041 347.378 52.3041 347.378 51.9294C347.378 51.5546 347.004 51.5546 346.629 51.5546C346.254 51.5546 345.879 51.1799 345.505 51.1799H345.13H344.755C344.38 51.1799 344.006 51.5546 343.256 51.5546C342.882 51.9294 342.132 51.9294 341.757 52.3041C341.383 52.6788 340.633 52.6788 340.258 53.0536C339.884 53.0536 339.509 53.4283 339.134 53.4283C338.759 53.4283 338.385 53.803 338.385 54.1778C338.385 54.5525 338.385 54.9272 338.759 54.9272L339.134 55.302L337.635 55.6767L337.261 55.302C336.886 55.302 336.886 54.9272 336.511 54.5525C335.762 53.803 335.387 53.0536 335.762 52.3041C336.136 51.5546 336.886 51.1799 338.385 50.4304L344.006 48.182C344.38 48.182 344.755 47.8073 344.755 47.4326C344.755 47.0578 344.755 46.6831 344.38 46.6831L344.006 46.3084L345.505 45.9336L345.879 46.3084L346.254 46.6831L346.629 47.0578C347.753 48.182 347.753 48.9315 347.004 49.681C347.753 49.681 348.503 50.0557 348.877 50.0557C349.627 50.4304 350.001 50.8052 350.376 51.1799C351.126 51.9294 351.5 52.6788 351.126 53.4283C350.751 54.1778 350.001 54.9272 348.877 55.302C348.503 55.302 348.128 55.6767 347.753 55.6767C347.378 55.6767 346.629 56.0514 346.254 56.0514C345.879 56.4262 345.13 56.4262 344.755 56.4262C344.38 56.4262 344.006 56.8009 343.631 56.8009C343.256 56.8009 342.882 57.1756 342.882 57.5504C342.882 57.9251 342.882 57.9251 343.256 58.2998C343.631 58.6746 344.006 58.6746 344.38 58.6746C344.755 58.6746 345.505 58.6746 345.879 58.6746L345.505 59.7988C345.13 60.1735 344.38 60.1735 344.006 60.1735C343.631 60.1735 342.882 60.1735 342.507 60.1735C342.882 60.1735 342.507 59.7988 341.757 59.7988ZM362.368 62.4219L360.494 62.7966L358.995 60.923L349.252 63.5461C348.877 63.5461 348.503 63.9209 348.503 63.9209C348.503 64.2956 348.503 64.2956 348.877 64.6703C349.252 65.045 349.627 65.045 350.001 65.4198C350.376 65.4198 351.126 65.4198 351.5 65.4198L351.126 66.544C350.751 66.544 350.001 66.9187 349.627 66.544C349.252 66.544 348.503 66.544 348.128 66.1693C347.753 66.1693 347.004 65.7945 346.629 65.4198C346.254 65.045 345.879 64.6703 345.505 64.2956C345.13 63.9208 345.13 63.5461 344.755 63.1714C344.755 62.7966 344.755 62.4219 344.755 62.0472C344.755 61.6724 345.13 61.2977 345.505 60.923C345.879 60.5482 346.629 60.5482 347.004 60.1735L356.372 57.5504L355.248 56.0514L357.121 55.6767L358.246 56.8009L359.37 56.4262L362.368 59.0493L360.494 59.424L362.368 62.4219Z" fill="#010202"/>
<path d="M256.691 234.05C256.316 234.05 255.942 234.05 255.567 234.05C255.192 234.05 254.817 234.425 254.443 234.8C254.068 235.174 253.693 235.549 253.318 236.299C252.944 236.673 252.569 237.423 251.82 238.172C251.445 238.922 251.07 239.297 251.07 240.046C250.695 240.421 250.695 241.17 250.695 241.545C250.695 241.92 250.695 242.294 250.695 242.669C250.695 243.044 251.07 243.044 251.445 243.044C251.82 243.044 252.194 243.044 252.569 242.669C252.944 242.669 253.318 242.294 254.068 241.92C254.068 241.545 254.443 241.545 254.443 241.17L257.815 234.8C257.441 234.05 257.066 234.05 256.691 234.05Z" fill="#010202"/>
<path d="M327.893 218.684C327.893 218.309 327.893 217.56 327.893 216.81C327.893 216.436 327.893 215.686 327.518 215.311C327.518 214.937 327.143 214.562 327.143 214.187C327.143 213.812 326.769 213.812 326.769 213.812C326.394 213.812 326.394 213.812 326.019 214.187C326.019 214.562 325.645 214.562 325.645 214.937C325.645 215.311 325.645 215.686 325.645 216.436C325.645 216.81 325.645 217.56 325.645 218.309C325.645 219.059 325.645 219.433 326.019 220.183L327.143 219.434C327.518 219.434 327.893 219.059 327.893 218.684Z" fill="#010202"/>
<path d="M282.174 233.675C281.8 234.425 281.05 235.924 280.676 237.423C280.301 238.172 280.301 238.547 280.301 239.296C280.301 240.046 280.301 240.42 280.301 240.795C280.301 241.17 280.301 241.545 280.676 241.545C281.05 241.919 281.05 241.919 281.425 241.919C281.8 241.919 282.174 241.545 282.549 241.545C282.924 241.17 283.299 240.795 283.673 240.42V240.046V239.671C283.673 239.671 283.673 239.296 284.048 238.547C284.048 238.172 284.423 237.423 284.423 237.048C284.423 236.298 284.798 235.549 284.798 234.799C284.798 234.05 285.172 233.3 285.172 232.551C284.798 232.176 284.423 232.176 284.048 232.176C283.299 232.551 282.549 232.926 282.174 233.675Z" fill="#010202"/>
<path d="M264.562 221.684C316.302 221.684 358.246 179.74 358.246 128C358.246 76.2604 316.302 34.3169 264.562 34.3169C212.822 34.3169 170.879 76.2604 170.879 128C170.879 179.74 212.822 221.684 264.562 221.684Z" fill="#F5E7C2"/>
<path d="M346.629 162.475C351.125 151.983 353.374 140.366 353.374 128.374C353.374 79.2843 313.652 39.5625 264.562 39.5625C215.472 39.5625 175.75 79.2843 175.75 128.374C175.75 140.366 178.373 151.983 182.495 162.475H346.629Z" fill="#BA1E1C"/>
<path d="M266.811 62.0454L268.31 66.9169H273.557L269.434 69.9148L270.933 75.1611L266.811 71.7885L262.315 75.1611L264.188 69.9148L259.691 66.9169H264.938L266.811 62.0454Z" fill="#F5E7C2"/>
<path d="M239.079 62.0454L240.953 66.9169H246.199L241.702 69.9148L243.576 75.1611L239.079 71.7885L234.957 75.1611L236.456 69.9148L232.334 66.9169H237.58L239.079 62.0454Z" fill="#F5E7C2"/>
<path d="M290.79 62.0454L292.289 66.9169H297.535L293.413 69.9148L294.912 75.1611L290.79 71.7885L286.668 75.1611L288.167 69.9148L284.045 66.9169H289.291L290.79 62.0454Z" fill="#F5E7C2"/>
<path d="M240.953 163.974H224.465L197.859 125.376H204.604H213.223C215.097 125.376 216.596 125.001 218.469 124.627C219.968 124.252 221.467 123.502 222.591 122.378C223.716 121.629 224.84 120.13 225.215 119.006C225.964 117.507 226.339 116.008 226.339 113.759C226.339 111.886 225.964 110.387 225.215 108.888C224.465 107.389 223.341 106.265 222.217 105.515C221.093 104.766 219.594 104.016 218.095 103.267C216.596 102.892 214.722 102.517 213.223 102.517H204.604H175.375L180.996 89.7764H213.598C216.97 89.7764 219.968 90.1511 222.966 90.5258C225.964 91.2753 228.962 92.3995 231.585 94.6479C234.208 96.8963 236.457 99.5194 237.956 102.517C239.454 105.515 240.204 108.888 240.204 112.635C240.204 115.633 239.454 119.006 238.33 122.003C237.206 125.376 235.332 127.999 233.084 130.248C231.21 132.121 229.337 133.245 227.463 134.37C225.589 135.119 223.341 135.869 221.093 136.618L240.953 163.974Z" fill="#F5E7C2"/>
<path d="M279.923 116.383C282.546 117.881 284.794 119.38 286.668 121.629C288.542 123.877 290.041 126.126 291.165 129.123C292.289 132.121 292.664 135.119 292.664 138.117C292.664 141.49 291.914 144.862 290.79 148.235C289.666 151.233 287.792 154.231 285.544 156.479C283.295 158.727 280.672 160.601 277.674 162.1C274.677 163.599 271.304 164.348 267.931 164.348C264.184 164.348 260.811 163.599 257.814 162.475C254.816 160.976 252.193 159.102 249.944 156.854C247.696 154.605 245.822 151.608 244.698 148.61C243.574 145.612 242.824 142.239 242.824 138.492C242.824 135.494 243.199 132.496 244.323 129.498C245.447 126.875 246.946 123.877 248.82 121.254L269.056 90.5259H284.045L258.188 131.747C257.814 132.121 257.814 132.496 257.439 132.871C257.064 133.246 257.064 133.62 256.689 133.995C255.94 135.494 255.565 137.368 255.565 139.241C255.565 141.115 255.94 142.614 256.315 144.113C257.064 145.612 257.814 147.111 258.938 148.235C260.062 149.359 261.186 150.483 262.685 151.233C264.184 151.982 265.683 152.357 267.557 152.357C269.43 152.357 270.929 151.982 272.428 151.233C273.927 150.483 275.051 149.734 276.176 148.61C277.3 147.485 278.049 145.987 278.799 144.488C279.548 142.989 279.548 141.49 279.548 139.616C279.548 137.742 279.173 136.243 278.799 134.744C278.049 133.246 277.3 131.747 276.176 130.622C275.051 129.498 273.927 128.374 272.428 127.999C270.929 127.25 269.43 126.875 267.557 126.875C266.058 126.875 264.559 127.25 263.435 127.625L270.929 114.884C274.302 114.509 277.3 115.258 279.923 116.383Z" fill="#F5E7C2"/>
<path d="M318.151 165.846C314.403 165.846 310.656 165.097 307.283 163.598C303.911 162.099 300.913 160.225 298.665 157.602C296.416 154.979 294.543 151.981 293.044 148.609C291.545 145.236 291.17 141.489 291.17 137.741C291.17 134.369 291.919 130.996 293.044 127.998C294.168 125.001 295.667 122.377 297.54 119.379L318.151 87.9019H337.637L322.273 112.26C325.271 112.26 328.269 113.009 330.892 114.508C333.89 116.007 336.138 117.881 338.386 120.129C340.635 122.377 342.134 125.001 343.258 128.373C344.382 131.371 345.132 134.744 345.132 138.116C345.132 141.864 344.382 145.236 343.258 148.609C341.759 151.981 339.885 154.979 337.637 157.602C335.388 160.225 332.391 162.099 329.018 163.598C325.645 165.097 321.898 165.846 318.151 165.846ZM309.907 132.495C309.532 132.87 309.532 133.245 309.157 133.619C309.157 133.994 308.782 133.994 308.782 134.369C308.033 135.868 307.658 137.367 307.658 138.866C307.658 140.365 308.033 141.864 308.408 143.362C308.782 144.861 309.532 145.986 310.656 147.11C311.406 148.234 312.53 148.983 314.029 149.733C315.153 150.482 316.652 150.482 318.151 150.482C319.65 150.482 320.774 150.108 322.273 149.733C323.397 148.983 324.521 148.234 325.645 147.485C326.395 146.36 327.144 145.236 327.894 144.112C328.269 142.988 328.643 141.489 328.643 139.99C328.643 138.491 328.269 136.992 327.894 135.868C327.519 134.369 326.77 133.245 325.645 132.495C324.896 131.371 323.772 130.622 322.273 130.247C321.149 129.497 319.65 129.497 318.151 129.497C317.027 129.497 315.902 129.872 314.778 130.247L311.406 131.746L309.907 132.495Z" fill="#F5E7C2"/>
<path d="M334.261 90.1502L308.405 131.371C308.03 131.746 308.03 132.12 307.655 132.495C307.28 132.87 307.28 133.245 306.906 133.619C306.156 135.118 305.782 136.992 305.782 138.866C305.782 140.739 306.156 142.238 306.531 143.737C307.28 145.236 308.03 146.735 309.154 147.859C310.278 148.983 311.403 150.108 312.902 150.857C314.4 151.607 315.899 151.981 317.773 151.981C319.647 151.981 321.146 151.607 322.645 150.857C324.143 150.108 325.268 149.358 326.392 148.234C327.516 147.11 328.266 145.611 329.015 144.112C329.764 142.613 329.765 141.114 329.765 139.24C329.765 137.367 329.39 135.868 329.015 134.369C328.266 132.87 327.516 131.371 326.392 130.247C325.268 129.122 324.143 127.998 322.645 127.624C321.146 126.874 319.647 126.499 317.773 126.499C316.274 126.499 314.775 126.874 313.651 127.249L321.146 114.508C324.518 114.508 327.141 115.257 330.139 116.382C332.762 117.88 335.011 119.379 336.884 121.628C338.758 123.876 340.257 126.125 341.381 129.123C342.505 132.12 342.88 135.118 342.88 138.116C342.88 141.489 342.131 144.861 341.007 148.234C339.882 151.232 338.009 154.23 335.76 156.478C333.512 158.726 330.889 160.6 327.891 162.099C324.893 163.598 321.52 164.347 318.148 164.347C314.4 164.347 311.028 163.598 308.03 162.474C305.032 160.975 302.409 159.101 300.161 156.853C297.912 154.604 296.038 151.607 294.914 148.609C293.79 145.611 293.041 142.238 293.041 138.491C293.041 135.493 293.415 132.495 294.54 129.497C295.664 126.874 297.163 123.876 299.036 121.253L319.272 90.5249H334.261V90.1502ZM341.007 86.4028H334.261H319.272H317.398L316.274 88.2765L296.038 119.005C294.165 122.003 292.666 125 291.542 127.998C290.417 131.371 289.668 134.743 289.668 138.116C289.668 142.238 290.417 145.986 291.916 149.733C293.415 153.48 295.289 156.478 297.912 159.101C300.535 161.724 303.533 163.973 307.281 165.472C310.653 166.971 314.775 167.72 318.897 167.72C323.019 167.72 326.767 166.971 330.514 165.097C333.887 163.598 336.884 161.35 339.508 158.726C342.131 156.103 344.004 152.731 345.503 149.358C347.002 145.611 347.752 141.863 347.752 138.116C347.752 134.743 347.002 130.996 345.878 127.998C344.754 124.626 342.88 121.628 340.632 119.379C338.383 116.756 335.76 114.883 332.762 113.384C330.889 112.259 328.64 111.885 326.392 111.51L338.383 92.7733L341.007 86.4028ZM312.527 131.746L315.15 130.621C315.899 130.247 316.649 130.247 317.773 130.247C318.897 130.247 320.021 130.621 321.146 130.996C322.27 131.371 323.019 132.12 323.769 132.87C324.518 133.619 325.268 134.743 325.642 135.868C326.017 136.992 326.392 138.116 326.392 139.24C326.392 140.365 326.017 141.489 325.642 142.613C325.268 143.737 324.518 144.487 323.769 145.611C323.019 146.36 322.27 147.11 321.146 147.484C320.021 147.859 319.272 148.234 317.773 148.234C316.649 148.234 315.525 147.859 314.4 147.484C313.276 147.11 312.527 146.36 311.777 145.611C311.028 144.861 310.278 143.737 309.904 142.613C309.529 141.489 309.154 140.365 309.154 138.866C309.154 137.367 309.529 136.242 309.904 135.493V135.118V134.744C310.278 134.369 310.653 133.619 310.653 133.245L312.527 131.746Z" fill="#BA1E1C"/>
<path d="M188.865 162.476H342.506C342.506 162.476 338.009 188.707 307.281 199.574C276.553 210.067 242.452 199.574 242.452 199.574C242.452 199.574 222.591 190.206 220.343 188.332C218.094 186.459 188.865 162.476 188.865 162.476Z" fill="#F5E7C2"/>
<path d="M209.099 190.581H205.727V173.343H213.596C214.345 173.343 215.095 173.343 215.844 173.718C216.594 174.093 217.343 174.467 217.718 174.842C218.093 175.217 218.468 175.966 218.842 176.716C219.217 177.465 219.217 178.215 219.217 178.964C219.217 180.088 218.842 181.213 218.093 182.337C217.343 183.461 216.594 183.836 215.47 184.585C216.969 186.459 218.468 188.333 219.592 190.206H215.844C215.095 189.457 214.345 188.333 213.971 187.583C213.221 186.834 212.846 185.709 212.097 184.96H208.724V190.581H209.099ZM209.099 182.337H213.596C213.971 182.337 214.345 182.337 214.345 182.337C214.72 182.337 215.095 181.962 215.095 181.962C215.47 181.587 215.47 181.587 215.844 181.213C215.844 180.838 216.219 180.463 216.219 180.088C216.219 179.714 216.219 179.714 216.219 179.339C216.219 178.964 216.219 178.59 215.844 178.215C215.844 177.84 215.47 177.465 215.095 177.465C214.72 177.091 214.345 177.091 213.596 177.091H209.099V182.337Z" fill="#BA1E1C"/>
<path d="M230.463 190.956C229.338 190.956 228.214 190.581 227.09 190.206C225.966 189.832 225.216 189.082 224.467 188.333C223.717 187.583 222.968 186.459 222.593 185.709C222.218 184.585 221.844 183.461 221.844 182.337C221.844 181.213 222.218 180.088 222.593 178.964C222.968 177.84 223.717 177.091 224.467 175.966C225.216 175.217 226.341 174.467 227.09 174.093C228.214 173.718 229.338 173.343 230.463 173.343C231.587 173.343 232.711 173.718 233.835 174.093C234.959 174.467 235.709 175.217 236.458 175.966C237.208 176.716 237.957 177.84 238.332 178.964C238.707 180.088 239.082 181.213 239.082 182.337C239.082 183.461 238.707 184.585 238.332 185.709C237.957 186.834 237.208 187.583 236.458 188.333C235.709 189.082 234.585 189.832 233.835 190.206C233.086 190.581 231.587 190.956 230.463 190.956ZM230.463 176.341C229.713 176.341 228.964 176.341 228.214 176.716C227.465 177.091 227.09 177.465 226.341 177.84C225.966 178.215 225.591 178.964 225.216 179.714C224.842 180.463 224.842 181.213 224.842 181.962C224.842 182.712 224.842 183.461 225.216 184.211C225.591 184.96 225.966 185.709 226.341 186.084C226.715 186.459 227.465 187.208 228.214 187.208C228.964 187.583 229.713 187.583 230.463 187.583C231.212 187.583 231.962 187.583 232.711 187.208C233.46 186.834 233.835 186.459 234.585 186.084C234.959 185.709 235.334 184.96 235.709 184.211C236.084 183.461 236.084 182.712 236.084 181.962C236.084 181.213 236.084 180.463 235.709 179.714C235.334 178.964 234.959 178.215 234.585 177.84C234.21 177.465 233.46 176.716 232.711 176.716C231.962 176.341 231.212 176.341 230.463 176.341Z" fill="#BA1E1C"/>
<path d="M249.575 190.956C248.451 190.956 247.327 190.956 246.577 190.581C245.828 190.206 245.078 189.831 244.329 189.082C243.579 188.332 243.205 187.583 242.83 186.833C242.455 186.084 242.455 184.96 242.455 183.836V173.718H245.828V183.836C245.828 184.585 245.828 185.335 246.202 186.084C246.577 186.459 246.952 187.208 247.327 187.583C247.701 187.958 248.076 187.958 248.826 188.332C249.2 188.332 249.575 188.332 249.95 188.332C250.324 188.332 250.699 188.332 251.074 188.332C251.449 188.332 251.823 187.958 252.573 187.583C252.948 187.208 253.322 186.833 253.697 186.084C254.072 185.709 254.072 184.96 254.072 183.836V173.718H257.444V183.836C257.444 184.96 257.444 186.084 257.07 186.833C256.695 187.583 256.32 188.332 255.571 189.082C254.821 189.831 254.072 190.206 253.322 190.581C252.573 190.956 250.699 190.956 249.575 190.956Z" fill="#BA1E1C"/>
<path d="M272.055 176.341H267.184V190.581H263.811V176.341H258.939V173.343H272.055V176.341Z" fill="#BA1E1C"/>
<path d="M277.306 176.341V180.463H285.55V183.461H277.306V187.583H286.675V190.581H273.934V173.343H286.675V176.341H277.306Z" fill="#BA1E1C"/>
<path d="M304.286 178.964C305.036 178.964 306.16 178.964 306.535 179.339C307.284 179.714 308.034 180.088 308.408 180.463C308.783 180.838 309.158 181.587 309.532 182.337C309.907 183.086 309.907 183.836 309.907 184.96C309.907 185.335 309.907 186.084 309.907 186.459C309.907 186.833 309.532 187.208 309.532 187.583C309.532 187.958 309.158 188.332 309.158 188.332C309.158 188.332 308.783 188.707 308.783 189.082C308.408 189.457 308.034 189.831 307.659 189.831C307.284 190.206 306.909 190.206 306.16 190.206C305.785 190.206 305.41 190.581 305.036 190.581C304.661 190.581 304.286 190.581 303.911 190.581C303.162 190.581 302.413 190.581 302.038 190.206C301.288 189.831 300.914 189.831 300.164 189.457C299.789 189.082 299.04 188.707 298.665 188.332C298.29 187.958 297.916 187.208 297.916 186.833C297.541 185.709 297.541 184.96 297.541 184.21C297.541 183.461 297.916 182.337 298.29 181.587C298.29 181.212 298.665 180.838 299.04 180.088C299.415 179.339 299.789 178.964 300.539 178.215C300.914 177.465 301.663 176.716 302.038 175.966C302.413 175.217 303.162 174.467 303.537 173.718H307.659C307.284 174.093 306.909 174.467 306.535 175.217C306.16 175.591 305.785 176.341 305.41 176.716C305.036 177.09 304.661 177.84 304.286 178.215C303.912 178.589 303.537 179.339 303.162 179.714H303.537C303.912 178.964 303.912 178.964 304.286 178.964ZM303.911 187.958C304.286 187.958 304.661 187.958 305.036 187.583C305.41 187.583 305.785 187.208 306.16 186.833C306.535 186.459 306.535 186.084 306.909 185.709C306.909 185.335 307.284 184.96 307.284 184.585C307.284 184.21 307.284 183.836 306.909 183.461C306.909 183.086 306.535 182.711 306.16 182.337C305.785 181.962 305.41 181.962 305.036 181.587C304.661 181.587 304.286 181.212 303.911 181.212C303.537 181.212 303.162 181.212 302.787 181.587C302.413 181.587 302.038 181.962 301.663 182.337C301.288 182.711 301.288 183.086 300.914 183.461C300.914 183.836 300.539 184.21 300.539 184.585C300.539 184.96 300.539 185.335 300.914 185.709C300.914 186.084 301.288 186.459 301.663 186.833C302.038 187.208 302.413 187.208 302.787 187.583C302.787 187.958 303.162 187.958 303.911 187.958Z" fill="#BA1E1C"/>
<path d="M319.275 178.964C320.024 178.964 321.148 178.964 321.523 179.339C322.272 179.714 323.022 180.088 323.397 180.463C323.771 180.838 324.146 181.587 324.521 182.337C324.896 183.086 324.896 183.836 324.896 184.96C324.896 185.335 324.896 186.084 324.896 186.459C324.896 186.833 324.521 187.208 324.521 187.583C324.521 187.958 324.146 188.332 324.146 188.332C324.146 188.332 323.771 188.707 323.771 189.082C323.397 189.457 323.022 189.831 322.647 189.831C322.272 190.206 321.898 190.206 321.148 190.206C320.773 190.206 320.399 190.581 320.024 190.581C319.649 190.581 319.274 190.581 318.9 190.581C318.15 190.581 317.401 190.581 317.026 190.206C316.277 189.831 315.902 189.831 315.152 189.457C314.778 189.082 314.028 188.707 313.654 188.332C313.279 187.958 312.904 187.208 312.904 186.833C312.529 185.709 312.529 184.96 312.529 184.21C312.529 183.461 312.904 182.337 313.279 181.587C313.279 181.212 313.653 180.838 314.028 180.088C314.403 179.339 314.778 178.964 315.527 178.215C315.902 177.465 316.651 176.716 317.026 175.966C317.401 175.217 318.15 174.467 318.525 173.718H322.647C322.272 174.093 321.898 174.467 321.523 175.217C321.148 175.591 320.773 176.341 320.399 176.716C320.024 177.09 319.649 177.84 319.275 178.215C318.9 178.589 318.525 179.339 318.15 179.714H318.525C318.9 178.964 319.275 178.964 319.275 178.964ZM318.9 187.958C319.274 187.958 319.649 187.958 320.024 187.583C320.399 187.583 320.773 187.208 321.148 186.833C321.523 186.459 321.523 186.084 321.898 185.709C321.898 185.335 322.272 184.96 322.272 184.585C322.272 184.21 322.272 183.836 321.898 183.461C321.898 183.086 321.523 182.711 321.148 182.337C320.773 181.962 320.399 181.962 320.024 181.587C319.649 181.587 319.274 181.212 318.9 181.212C318.525 181.212 318.15 181.212 317.776 181.587C317.401 181.587 317.026 181.962 316.651 182.337C316.277 182.711 316.277 183.086 315.902 183.461C315.902 183.836 315.527 184.21 315.527 184.585C315.527 184.96 315.527 185.335 315.902 185.709C315.902 186.084 316.277 186.459 316.651 186.833C317.026 187.208 317.401 187.208 317.776 187.583C318.15 187.958 318.525 187.958 318.9 187.958Z" fill="#BA1E1C"/>
</svg>
